<?xml version="1.0" encoding="utf-8"?>
<!-- Generator: Adobe Illustrator 16.0.0, SVG Export Plug-In . SVG Version: 6.00 Build 0)  -->
<!DOCTYPE svg PUBLIC "-//W3C//DTD SVG 1.1//EN" "http://www.w3.org/Graphics/SVG/1.1/DTD/svg11.dtd">
<svg version="1.1" xmlns="http://www.w3.org/2000/svg" xmlns:xlink="http://www.w3.org/1999/xlink" x="0px" y="0px" width="512px"
	 height="512px" viewBox="0 0 512 512" enable-background="new 0 0 512 512" xml:space="preserve">
<g id="Capa_2">
</g>
<g id="Artwork">
</g>
<g id="Layer_3">
</g>
<g id="Layer_4">
</g>
<g id="Layer_5">
	<g>
		<path d="M289.806,422.506c-0.267-2.398-2.459-4.361-4.872-4.361h-9.188v-12.709c0,0,0.035-3.739-3.673-3.739
			c-6.154,0-8.989,0.743-15.989,0.743c-5.631,0-10.94-0.493-16.009-0.493c-3.96,0-3.821,3.613-3.821,3.613v12.585h-9.188
			c-2.413,0-4.605,1.963-4.872,4.361l-3.419,30.77c-0.267,2.399,1.49,4.361,3.903,4.361h66.643c2.413,0,4.17-1.962,3.903-4.361
			L289.806,422.506z"/>
		<path d="M365.7,54.363H146.3c-4.827,0-8.333,3.926-7.792,8.722c0,0,36.556,286.639,38.403,296.568
			c2.422,13.015,32.807,25.14,79.173,25.14c49.661,0,77.938-12.488,79.908-28.225l37.5-293.483
			C374.033,58.289,370.527,54.363,365.7,54.363z M319.132,135.239l-20.149,157.698c-1.059,8.455-16.253,15.166-42.938,15.166
			c-24.914,0-39.808-5.851-42.542-13.508c-0.235-0.495-0.409-1.021-0.472-1.574l-20.163-157.782
			c-0.291-2.577,1.593-4.686,4.187-4.686h117.891C317.539,130.553,319.423,132.662,319.132,135.239z"/>
	</g>
</g>
</svg>
