<?xml version="1.0" encoding="utf-8"?>
<!-- Generator: Adobe Illustrator 16.0.0, SVG Export Plug-In . SVG Version: 6.00 Build 0)  -->
<!DOCTYPE svg PUBLIC "-//W3C//DTD SVG 1.1//EN" "http://www.w3.org/Graphics/SVG/1.1/DTD/svg11.dtd">
<svg version="1.1" xmlns="http://www.w3.org/2000/svg" xmlns:xlink="http://www.w3.org/1999/xlink" x="0px" y="0px" width="512px"
	 height="512px" viewBox="0 0 512 512" enable-background="new 0 0 512 512" xml:space="preserve">
<g id="Capa_2">
</g>
<g id="Artwork">
</g>
<g id="Layer_3">
</g>
<g id="Layer_4">
</g>
<g id="Layer_5">
	<g>
		<path d="M64.848,126.255h59.502c1.183,0,2.15-0.968,2.15-2.15V64.603c0-1.184-0.968-2.151-2.15-2.151H64.848
			c-1.184,0-2.151,0.968-2.151,2.151v59.502C62.696,125.287,63.664,126.255,64.848,126.255z"/>
		<path d="M123.907,385.744H64.405c-1.184,0-2.151,0.969-2.151,2.15v59.503c0,1.183,0.968,2.151,2.151,2.151h59.502
			c1.183,0,2.15-0.969,2.15-2.151v-59.503C126.058,386.713,125.09,385.744,123.907,385.744z"/>
		<path d="M447.152,385.745H387.65c-1.183,0-2.15,0.968-2.15,2.15v59.502c0,1.184,0.968,2.151,2.15,2.151h59.502
			c1.184,0,2.151-0.968,2.151-2.151v-59.502C449.304,386.713,448.336,385.745,447.152,385.745z"/>
		<path d="M447.595,62.451h-59.502c-1.183,0-2.15,0.968-2.15,2.151v59.502c0,1.183,0.968,2.15,2.15,2.15h59.502
			c1.184,0,2.151-0.968,2.151-2.15V64.603C449.746,63.419,448.778,62.451,447.595,62.451z"/>
		<path d="M412.315,365.572c0-50.346,0-191.998,0-217.969c0-2.5-0.365-4.117-4.073-4.117c-9.333,0-37.331,0-37.331,0
			c-1.184,0-2.151-0.968-2.151-2.15c0,0,0-28.08,0-37.441c0-2.416-0.143-3.964-3.852-3.964c-22.792,0-217.816,0-217.816,0
			s-3.852,0-3.852,4.081c0,9.33,0,36.832,0,36.832c0,1.182-0.968,2.15-2.151,2.15H103.05c0,0-3.365,0.121-3.365,3.434
			c0,50.346,0,191.998,0,217.969c0,2.5,0.365,4.117,4.073,4.117c9.333,0,37.331,0,37.331,0c1.184,0,2.151,0.968,2.151,2.15
			c0,0,0,28.08,0,37.441c0,2.416,0.143,3.963,3.852,3.963c19.741,0,217.816,0,217.816,0s3.852,0,3.852-4.081c0-9.33,0-36.83,0-36.83
			c0-1.184,0.968-2.151,2.151-2.151h38.039C408.95,369.006,412.315,368.885,412.315,365.572z"/>
	</g>
</g>
</svg>
