<?xml version="1.0" encoding="utf-8"?>
<!-- Generator: Adobe Illustrator 16.0.0, SVG Export Plug-In . SVG Version: 6.00 Build 0)  -->
<!DOCTYPE svg PUBLIC "-//W3C//DTD SVG 1.1//EN" "http://www.w3.org/Graphics/SVG/1.1/DTD/svg11.dtd">
<svg version="1.1" xmlns="http://www.w3.org/2000/svg" xmlns:xlink="http://www.w3.org/1999/xlink" x="0px" y="0px" width="512px"
	 height="512px" viewBox="0 0 512 512" enable-background="new 0 0 512 512" xml:space="preserve">
<g id="Capa_2">
</g>
<g id="Artwork">
</g>
<g id="Layer_3">
</g>
<g id="Layer_4">
</g>
<g id="Layer_5">
	<path d="M383.533,228.238L266.239,59.974c-5.633-6.598-14.846-6.598-20.479,0L128.47,228.235
		c-5.631,6.598-3.146,11.996,5.529,11.996h49.068c8.672,0,15.77,7.097,15.77,15.77l0.077,51.518v133.427l-0.021,0.292
		c0.003,8.676,7.321,15.735,15.991,15.737l82.789-0.002c8.673,0,15.77-7.095,15.77-15.765l-0.279-185.207
		c0-8.673,7.094-15.77,15.768-15.77h49.067C386.673,240.231,389.161,234.833,383.533,228.238z"/>
</g>
</svg>
