<?xml version="1.0" encoding="utf-8"?>
<!-- Generator: Adobe Illustrator 16.0.0, SVG Export Plug-In . SVG Version: 6.00 Build 0)  -->
<!DOCTYPE svg PUBLIC "-//W3C//DTD SVG 1.1//EN" "http://www.w3.org/Graphics/SVG/1.1/DTD/svg11.dtd">
<svg version="1.1" xmlns="http://www.w3.org/2000/svg" xmlns:xlink="http://www.w3.org/1999/xlink" x="0px" y="0px" width="512px"
	 height="512px" viewBox="0 0 512 512" enable-background="new 0 0 512 512" xml:space="preserve">
<g id="Capa_2">
</g>
<g id="Artwork">
</g>
<g id="Layer_3">
</g>
<g id="Layer_4">
</g>
<g id="Layer_5">
	<path d="M452.026,245.761l-168.262-117.29c-6.598-5.632-11.996-3.147-11.996,5.528v49.068c0,8.672-7.097,15.77-15.77,15.77
		l-104.176,0.156H70.716v0.125c-8.639,0.048-15.688,7.123-15.69,15.766l0.002,82.789c0,8.673,7.095,15.77,15.765,15.77
		l183.426-0.276h1.834c8.648,0.029,15.717,7.108,15.717,15.765v49.067c0,8.675,5.398,11.163,11.993,5.535l168.265-117.294
		C458.624,260.606,458.624,251.394,452.026,245.761z"/>
</g>
</svg>
