<?xml version="1.0" encoding="utf-8"?>
<!-- Generator: Adobe Illustrator 16.0.0, SVG Export Plug-In . SVG Version: 6.00 Build 0)  -->
<!DOCTYPE svg PUBLIC "-//W3C//DTD SVG 1.1//EN" "http://www.w3.org/Graphics/SVG/1.1/DTD/svg11.dtd">
<svg version="1.1" xmlns="http://www.w3.org/2000/svg" xmlns:xlink="http://www.w3.org/1999/xlink" x="0px" y="0px" width="512px"
	 height="512px" viewBox="0 0 512 512" enable-background="new 0 0 512 512" xml:space="preserve">
<g id="Capa_2">
</g>
<g id="Artwork">
</g>
<g id="Layer_3">
</g>
<g id="Layer_4">
</g>
<g id="Layer_5">
	<path d="M378.001,271.767h-49.068c-8.672,0-15.77-7.096-15.77-15.77l-0.077-51.191V69.718l0,0
		c-0.563-8.176-7.664-14.691-15.97-14.693l-82.789,0.002c-8.673,0-15.77,7.094-15.77,15.764l0.279,185.207
		c0,8.674-7.094,15.77-15.768,15.77h-49.067c-8.675,0-11.163,5.398-5.535,11.994l117.294,168.266c5.633,6.598,14.846,6.598,20.479,0
		l117.29-168.264C389.161,277.165,386.677,271.767,378.001,271.767z"/>
</g>
</svg>
