<?xml version="1.0" encoding="utf-8"?>
<!-- Generator: Adobe Illustrator 16.0.0, SVG Export Plug-In . SVG Version: 6.00 Build 0)  -->
<!DOCTYPE svg PUBLIC "-//W3C//DTD SVG 1.1//EN" "http://www.w3.org/Graphics/SVG/1.1/DTD/svg11.dtd">
<svg version="1.1" xmlns="http://www.w3.org/2000/svg" xmlns:xlink="http://www.w3.org/1999/xlink" x="0px" y="0px" width="512px"
	 height="512px" viewBox="0 0 512 512" enable-background="new 0 0 512 512" xml:space="preserve">
<g id="Capa_2">
</g>
<g id="Artwork">
</g>
<g id="Layer_3">
</g>
<g id="Layer_4">
</g>
<g id="Layer_5">
	<g>
		<path d="M272.939,258.394c-4.812,5.053-14.456,9.187-21.434,9.187H99.689c-6.978,0-8.749-4.134-3.938-9.187l136.578-143.42
			c4.812-5.053,14.456-9.187,21.434-9.187H405.58c6.978,0,8.749,4.134,3.938,9.187L272.939,258.394z"/>
		<path d="M264.328,393.527c0,6.978-5.707,12.686-12.685,12.686H99.689c-6.978,0-12.686-5.708-12.686-12.686v-97.913
			c0-6.978,5.708-12.686,12.686-12.686h151.954c6.978,0,12.685,5.708,12.685,12.686V393.527z"/>
		<path d="M424.793,216.299c-0.017,6.978-3.766,17.003-8.33,22.279L284.916,390.643c-4.564,5.275-8.299,3.885-8.299-3.092V289.75
			c0-6.977,3.941-16.814,8.76-21.86l130.891-137.089c4.817-5.047,8.745-3.467,8.729,3.51L424.793,216.299z"/>
	</g>
</g>
</svg>
