<?xml version="1.0" encoding="utf-8"?>
<!-- Generator: Adobe Illustrator 16.0.0, SVG Export Plug-In . SVG Version: 6.00 Build 0)  -->
<!DOCTYPE svg PUBLIC "-//W3C//DTD SVG 1.1//EN" "http://www.w3.org/Graphics/SVG/1.1/DTD/svg11.dtd">
<svg version="1.1" xmlns="http://www.w3.org/2000/svg" xmlns:xlink="http://www.w3.org/1999/xlink" x="0px" y="0px" width="512px"
	 height="512px" viewBox="0 0 512 512" enable-background="new 0 0 512 512" xml:space="preserve">
<g id="Capa_2">
</g>
<g id="Artwork">
</g>
<g id="Layer_3">
</g>
<g id="Layer_4">
</g>
<g id="Layer_5">
	<g>
		<path d="M286.816,256.138c-83.705-42.492-128.506-59.891-152.789-28.006c-0.781,0.701-1.462,1.536-1.965,2.525l-16.271,32.053
			c-2.184,4.299-0.451,9.604,3.848,11.785l251.027,127.434c4.299,2.183,9.604,0.451,11.785-3.848l16.27-32.055
			c0.504-0.988,0.775-2.031,0.881-3.075C411.008,324.53,370.523,298.632,286.816,256.138z"/>
		<path d="M362.28,416.837L108.908,288.212c-3.654-1.854-8.162-0.384-10.017,3.271l-16.235,31.983
			c-1.855,3.653-0.384,8.162,3.271,10.017l253.372,128.625c3.653,1.854,8.162,0.384,10.017-3.271l16.235-31.982
			C367.406,423.199,365.934,418.691,362.28,416.837z"/>
		<path d="M425.656,96.135l-90.865-46.129c-4.3-2.183-9.332-0.325-11.186,4.125L256.731,214.88c0,0-2.558,6.471,2.42,8.998
			c12.933,6.571,57.871,29.4,70.804,35.971c5.127,2.604,8.683-3.404,8.683-3.404l90.289-148.847
			C431.429,103.476,429.956,98.316,425.656,96.135z"/>
	</g>
</g>
</svg>
