<?xml version="1.0" encoding="utf-8"?>
<!-- Generator: Adobe Illustrator 16.0.0, SVG Export Plug-In . SVG Version: 6.00 Build 0)  -->
<!DOCTYPE svg PUBLIC "-//W3C//DTD SVG 1.1//EN" "http://www.w3.org/Graphics/SVG/1.1/DTD/svg11.dtd">
<svg version="1.1" xmlns="http://www.w3.org/2000/svg" xmlns:xlink="http://www.w3.org/1999/xlink" x="0px" y="0px" width="512px"
	 height="512px" viewBox="0 0 512 512" enable-background="new 0 0 512 512" xml:space="preserve">
<g id="Capa_2">
</g>
<g id="Artwork">
</g>
<g id="Layer_3">
</g>
<g id="Layer_4">
</g>
<g id="Layer_5">
	<g>
		<path d="M383.742,293.839c1.247,18.164,16.821,29.531,34.986,28.283c18.165-1.246,32.041-14.633,30.794-32.798
			c-1.246-18.165-36.318-63.804-36.542-50.949C412.671,256.249,382.495,275.674,383.742,293.839z"/>
		<path d="M185.987,94.159c-4.533-2.444-10.243-0.734-12.688,3.799L63.515,301.591c-2.444,4.534-0.734,10.243,3.799,12.688
			l192.092,103.563c4.534,2.444,10.243,0.734,12.688-3.799l96.691-173.578c2.444-4.533,36.643-26.883,36.643-26.883
			c4.142-3.061,3.821-7.565-0.712-10.01L185.987,94.159z"/>
	</g>
</g>
</svg>
