<?xml version="1.0" encoding="utf-8"?>
<!-- Generator: Adobe Illustrator 16.0.0, SVG Export Plug-In . SVG Version: 6.00 Build 0)  -->
<!DOCTYPE svg PUBLIC "-//W3C//DTD SVG 1.1//EN" "http://www.w3.org/Graphics/SVG/1.1/DTD/svg11.dtd">
<svg version="1.1" xmlns="http://www.w3.org/2000/svg" xmlns:xlink="http://www.w3.org/1999/xlink" x="0px" y="0px" width="512px"
	 height="512px" viewBox="0 0 512 512" enable-background="new 0 0 512 512" xml:space="preserve">
<g id="Capa_2">
</g>
<g id="Artwork">
</g>
<g id="Layer_3">
</g>
<g id="Layer_4">
</g>
<g id="Layer_5">
	<path d="M441.794,428.795V77.159c0-1.65-0.57-4.224-1.268-5.719l-2.984-1.235c-1.551,0.563-3.773,1.979-4.939,3.146l-44.871,44.87
		c-1.166,1.167-1.167,3.075,0,4.242l7.215,7.216c1.166,1.166,1.166,3.076,0,4.242l-7.697,7.698c-1.167,1.167-3.076,1.167-4.243,0
		l-7.216-7.215c-1.166-1.167-3.075-1.167-4.242,0l-31.469,31.468c-1.166,1.167-1.166,3.076,0,4.243l16.17,16.169
		c1.168,1.167,1.168,3.076,0,4.243l-7.697,7.697c-1.167,1.167-3.076,1.167-4.242,0l-16.17-16.169c-1.168-1.167-3.076-1.167-4.244,0
		l-31.467,31.468c-1.167,1.167-1.167,3.076,0,4.243l7.215,7.215c1.166,1.166,1.167,3.076,0,4.243l-7.697,7.697
		c-1.168,1.167-3.076,1.167-4.243,0l-7.216-7.215c-1.166-1.167-3.075-1.167-4.242,0l-31.468,31.468
		c-1.167,1.167-1.167,3.076,0,4.243l16.169,16.169c1.168,1.167,1.166,3.076,0,4.243l-7.697,7.698c-1.167,1.166-3.076,1.167-4.243,0
		l-16.169-16.17c-1.168-1.167-3.076-1.167-4.243,0l-31.468,31.468c-1.168,1.167-1.168,3.076,0,4.243l7.215,7.215
		c1.166,1.166,1.167,3.076,0,4.243l-7.697,7.697c-1.167,1.167-3.076,1.167-4.244,0l-7.215-7.215c-1.166-1.167-3.076-1.167-4.242,0
		l-31.469,31.468c-1.166,1.167-1.166,3.076,0,4.243l16.17,16.169c1.167,1.167,1.167,3.076,0,4.243l-7.697,7.698
		c-1.168,1.166-3.076,1.167-4.243,0l-16.169-16.17c-1.168-1.167-3.076-1.167-4.243,0l-59.941,59.94
		c-1.167,1.167-2.583,3.391-3.146,4.941l1.235,2.982c1.496,0.698,4.068,1.269,5.719,1.269h351.636
		C437.177,441.709,441.892,437.702,441.794,428.795z M395.927,404.68H182.025c-3.289,0-4.077-1.903-1.752-4.229l217.406-217.403
		c2.326-2.326,4.229-1.537,4.229,1.752v213.9C401.908,401.988,399.216,404.68,395.927,404.68z"/>
</g>
</svg>
