<?xml version="1.0" encoding="utf-8"?>
<!-- Generator: Adobe Illustrator 16.0.0, SVG Export Plug-In . SVG Version: 6.00 Build 0)  -->
<!DOCTYPE svg PUBLIC "-//W3C//DTD SVG 1.1//EN" "http://www.w3.org/Graphics/SVG/1.1/DTD/svg11.dtd">
<svg version="1.1" xmlns="http://www.w3.org/2000/svg" xmlns:xlink="http://www.w3.org/1999/xlink" x="0px" y="0px" width="512px"
	 height="512px" viewBox="0 0 512 512" enable-background="new 0 0 512 512" xml:space="preserve">
<g id="Capa_2">
</g>
<g id="Artwork">
</g>
<g id="Layer_3">
</g>
<g id="Layer_4">
</g>
<g id="Layer_5">
	<g>
		<g>
			<path d="M434.272,453.943c-85.848,0-343.389,0-343.389,0c-12.806,0-23.225-10.42-23.225-23.225c0,0,0-270.572,0-362.068
				c0-14.125,27.869-14.125,27.869,0c0,90.336,0,357.423,0,357.423s254.059,0,338.744,0
				C447.696,426.073,447.696,453.943,434.272,453.943z"/>
		</g>
		<path d="M418.974,408.715c3.832,0,6.967-3.135,6.967-6.967V153.864c0-3.832-3.135-6.968-6.967-6.968h-88.129
			c-3.832,0-6.968,3.136-6.968,6.968v247.884c0,3.832,3.136,6.967,6.968,6.967H418.974z"/>
		<path d="M300.022,408.715c3.832,0,6.968-3.135,6.968-6.967V98.125c0-3.832-3.136-6.967-6.968-6.967h-71.995
			c-3.832,0-6.968,3.135-6.968,6.967v303.623c0,3.832,3.136,6.967,6.968,6.967H300.022z"/>
		<path d="M197.206,408.715c3.832,0,6.967-3.135,6.967-6.967V222.377c0-3.832-3.135-6.968-6.967-6.968H118.82
			c-3.832,0-6.968,3.136-6.968,6.968v179.371c0,3.832,3.136,6.967,6.968,6.967H197.206z"/>
	</g>
</g>
</svg>
