<?xml version="1.0" encoding="utf-8"?>
<!-- Generator: Adobe Illustrator 16.0.0, SVG Export Plug-In . SVG Version: 6.00 Build 0)  -->
<!DOCTYPE svg PUBLIC "-//W3C//DTD SVG 1.1//EN" "http://www.w3.org/Graphics/SVG/1.1/DTD/svg11.dtd">
<svg version="1.1" xmlns="http://www.w3.org/2000/svg" xmlns:xlink="http://www.w3.org/1999/xlink" x="0px" y="0px" width="512px"
	 height="512px" viewBox="0 0 512 512" enable-background="new 0 0 512 512" xml:space="preserve">
<g id="Capa_2">
</g>
<g id="Artwork">
</g>
<g id="Layer_3">
</g>
<g id="Layer_4">
</g>
<g id="Layer_5">
	<path d="M419.962,263.405c1.373-6.779,2.099-13.794,2.099-20.979c0-58.085-47.088-105.173-105.173-105.173
		c-43.076,0-80.083,25.91-96.343,62.984c-12.494-8.139-27.381-12.912-43.403-12.912c-42.125,0-76.526,32.714-79.396,74.109
		c-22.688,10.412-38.478,33.271-38.478,59.869c0,36.396,29.506,65.902,65.902,65.902c0,0,71.396,0,95.194,0
		c4.667,0,4.894-5.178,4.894-5.178v-42.281c0-3.612-2.955-6.567-6.568-6.567h-18.007c-3.612,0-4.809-2.375-2.658-5.278
		l54.887-74.094c2.15-2.902,5.668-2.902,7.818,0l54.885,74.094c2.15,2.903,0.954,5.278-2.658,5.278h-18.008
		c-3.611,0-6.567,2.955-6.567,6.567v42.364c0,0,0.275,5.095,5.109,5.095c23.745,0,94.979,0,94.979,0
		c36.396,0,65.902-29.506,65.902-65.902C454.371,296.315,440.46,274.578,419.962,263.405z"/>
</g>
</svg>
