<?xml version="1.0" encoding="utf-8"?>
<!-- Generator: Adobe Illustrator 16.0.0, SVG Export Plug-In . SVG Version: 6.00 Build 0)  -->
<!DOCTYPE svg PUBLIC "-//W3C//DTD SVG 1.1//EN" "http://www.w3.org/Graphics/SVG/1.1/DTD/svg11.dtd">
<svg version="1.1" xmlns="http://www.w3.org/2000/svg" xmlns:xlink="http://www.w3.org/1999/xlink" x="0px" y="0px" width="512px"
	 height="512px" viewBox="0 0 512 512" enable-background="new 0 0 512 512" xml:space="preserve">
<g id="Capa_2">
</g>
<g id="Artwork">
</g>
<g id="Layer_3">
</g>
<g id="Layer_4">
</g>
<g id="Layer_5">
	<path d="M377.371,134.629c-32.42-32.42-75.523-50.273-121.371-50.273s-88.951,17.854-121.371,50.273
		C102.21,167.048,84.355,210.151,84.355,256s17.854,88.951,50.273,121.371c32.42,32.42,75.523,50.273,121.371,50.273
		s88.951-17.854,121.371-50.273c32.419-32.42,50.273-75.522,50.273-121.371S409.79,167.048,377.371,134.629z M148.859,363.141
		c-28.619-28.618-44.38-66.668-44.38-107.141c0-38.024,13.913-73.908,39.329-101.843l214.033,214.034
		c-27.934,25.416-63.818,39.329-101.842,39.329C215.527,407.521,177.478,391.76,148.859,363.141z"/>
</g>
</svg>
