<?xml version="1.0" encoding="utf-8"?>
<!-- Generator: Adobe Illustrator 16.0.0, SVG Export Plug-In . SVG Version: 6.00 Build 0)  -->
<!DOCTYPE svg PUBLIC "-//W3C//DTD SVG 1.1//EN" "http://www.w3.org/Graphics/SVG/1.1/DTD/svg11.dtd">
<svg version="1.1" xmlns="http://www.w3.org/2000/svg" xmlns:xlink="http://www.w3.org/1999/xlink" x="0px" y="0px" width="512px"
	 height="512px" viewBox="0 0 512 512" enable-background="new 0 0 512 512" xml:space="preserve">
<g id="Capa_2">
</g>
<g id="Artwork">
</g>
<g id="Layer_3">
</g>
<g id="Layer_4">
</g>
<g id="Layer_5">
	<g>
		<g>
			<path d="M400.52,75.643c0-3.851-3.15-7-7-7h-26.696c-3.85,0-7,3.149-7,7v9.964c0,3.85,3.15,7,7,7h26.696c3.85,0,7-3.15,7-7
				V75.643z"/>
		</g>
		<g>
			<path d="M359.823,354.812c0,3.85-3.15,7-7,7H80.594c-3.85,0-7,3.15-7,7v26.695c0,3.851,3.15,7,7,7c0,0,253.297,0,300.86,0
				c13.5,0,19.065-6.883,19.065-21.047c0-5.086,0-13.083,0-13.083V174.178c0-3.85-3.15-7-7-7h-26.696c-3.85,0-7,3.15-7,7V354.812z"
				/>
		</g>
		<g>
			<path d="M111.481,436.357c0,3.851,3.15,7,7,7h26.694c3.85,0,7-3.149,7-7v-9.963c0-3.851-3.15-7-7-7h-26.694c-3.85,0-7,3.149-7,7
				V436.357z"/>
		</g>
		<g>
			<path d="M132.225,109.493c-16.271,0-20.743,5.839-20.743,20.714c0,53.664,0,207.838,0,207.838c0,3.85,3.15,7,7,7h26.694
				c3.85,0,7-3.15,7-7V157.188c0-3.851,3.15-7,7-7h272.23c3.85,0,7-3.149,7-7v-26.695c0-3.851-3.15-7-7-7
				C431.406,109.493,136.995,109.493,132.225,109.493z"/>
		</g>
	</g>
</g>
</svg>
