<?xml version="1.0" encoding="utf-8"?>
<!-- Generator: Adobe Illustrator 16.0.0, SVG Export Plug-In . SVG Version: 6.00 Build 0)  -->
<!DOCTYPE svg PUBLIC "-//W3C//DTD SVG 1.1//EN" "http://www.w3.org/Graphics/SVG/1.1/DTD/svg11.dtd">
<svg version="1.1" xmlns="http://www.w3.org/2000/svg" xmlns:xlink="http://www.w3.org/1999/xlink" x="0px" y="0px" width="512px"
	 height="512px" viewBox="0 0 512 512" enable-background="new 0 0 512 512" xml:space="preserve">
<g id="Capa_2">
</g>
<g id="Artwork">
</g>
<g id="Layer_3">
</g>
<g id="Layer_4">
</g>
<g id="Layer_5">
	<path d="M458.955,256.932l-50.773-43.333c-2.438-2.08-4.433-1.161-4.432,2.043v18.128c0,3.204-2.621,5.825-5.825,5.825
		l-120.754-0.073l-0.052-125.445c0-3.204,2.621-5.825,5.826-5.825h18.127c3.205-0.001,4.125-1.994,2.045-4.431l-43.334-50.775
		c-2.08-2.438-5.484-2.438-7.564,0l-43.334,50.773c-2.08,2.438-1.162,4.433,2.043,4.432h18.129c3.203,0,5.826,2.622,5.826,5.826
		l0.051,125.465l-120.857,0.055c-3.203,0-5.824-2.621-5.824-5.824v-18.129c-0.001-3.205-1.995-4.123-4.432-2.045l-50.774,43.334
		c-2.438,2.082-2.438,5.484-0.001,7.566l50.774,43.332c2.437,2.08,4.433,1.162,4.432-2.043V287.66c0-3.205,2.622-5.828,5.826-5.828
		l120.874-0.055l-0.07,116.146c0,3.204-2.621,5.825-5.824,5.825h-18.129c-3.204,0.001-4.123,1.994-2.045,4.431l43.335,50.775
		c2.081,2.438,5.484,2.438,7.565,0l43.332-50.774c2.081-2.437,1.162-4.432-2.043-4.431h-18.128c-3.204,0-5.826-2.622-5.826-5.826
		l0.07-116.166l120.735,0.075c3.204,0,5.826,2.621,5.826,5.826v18.127c0,3.205,1.994,4.124,4.431,2.045l50.774-43.334
		C461.393,262.416,461.393,259.013,458.955,256.932z"/>
</g>
</svg>
