<?xml version="1.0" encoding="utf-8"?>
<!-- Generator: Adobe Illustrator 16.0.0, SVG Export Plug-In . SVG Version: 6.00 Build 0)  -->
<!DOCTYPE svg PUBLIC "-//W3C//DTD SVG 1.1//EN" "http://www.w3.org/Graphics/SVG/1.1/DTD/svg11.dtd">
<svg version="1.1" xmlns="http://www.w3.org/2000/svg" xmlns:xlink="http://www.w3.org/1999/xlink" x="0px" y="0px" width="512px"
	 height="512px" viewBox="0 0 512 512" enable-background="new 0 0 512 512" xml:space="preserve">
<g id="Capa_2">
</g>
<g id="Artwork">
</g>
<g id="Layer_3">
</g>
<g id="Layer_4">
</g>
<g id="Layer_5">
	<g>
		<path d="M321.802,313.301c-1.524-2.411-8.687-11.195-11.079-14.11c-3.782-4.608-8.095-4.108-11.486-0.034
			c-8.271,9.936-19.832,23.728-26.46,31.623c-4.398,5.24-5.227,9.391-1.731,13.266c1.542,1.709,7.954,9.045,7.954,9.045
			c-12.342,27.566-7.277,61.031,15.352,83.66c29.285,29.285,76.766,29.285,106.051,0c29.284-29.285,29.284-76.766,0-106.051
			C379.142,309.44,348.316,303.695,321.802,313.301z M373.579,409.928c-13.551,13.55-35.52,13.55-49.068,0
			c-13.551-13.55-13.551-35.519,0-49.068c13.549-13.55,35.518-13.55,49.068,0C387.128,374.409,387.128,396.378,373.579,409.928z"/>
		<path d="M204.755,261.403c8.522-11.597,22.224-29.08,29.38-38.96c3.598-4.966,3.931-8.799,0.021-14.211
			C207.533,171.378,126.732,61.494,126.732,61.494c-11.177-13.121-23.809-10.193-28.071,6.508l-7.715,30.226
			c-4.263,16.7,2.222,40.337,14.409,52.524c0,0,66.482,82.781,88.285,110.658C197.222,265.988,201.753,265.488,204.755,261.403z"/>
		<path d="M112.35,326.365c-29.285,29.285-29.285,76.766,0,106.051s76.766,29.285,106.051,0
			c22.629-22.629,27.693-56.094,15.352-83.66l160.916-192.254c12.188-12.188,18.672-35.823,14.408-52.524l-7.715-30.226
			c-4.262-16.701-16.895-19.629-28.07-6.508L195.736,302.36c-1.666,1.956-3.262,4.195-4.787,6.607
			C164.434,299.361,133.609,305.107,112.35,326.365z M139.172,356.525c13.551-13.549,35.52-13.549,49.068,0
			c13.551,13.551,13.551,35.52,0,49.068c-13.549,13.551-35.518,13.551-49.068,0C125.623,392.045,125.623,370.076,139.172,356.525z"
			/>
	</g>
</g>
</svg>
