<?xml version="1.0" encoding="utf-8"?>
<!-- Generator: Adobe Illustrator 16.0.0, SVG Export Plug-In . SVG Version: 6.00 Build 0)  -->
<!DOCTYPE svg PUBLIC "-//W3C//DTD SVG 1.1//EN" "http://www.w3.org/Graphics/SVG/1.1/DTD/svg11.dtd">
<svg version="1.1" xmlns="http://www.w3.org/2000/svg" xmlns:xlink="http://www.w3.org/1999/xlink" x="0px" y="0px" width="512px"
	 height="512px" viewBox="0 0 512 512" enable-background="new 0 0 512 512" xml:space="preserve">
<g id="Capa_2">
</g>
<g id="Artwork">
</g>
<g id="Layer_3">
</g>
<g id="Layer_4">
</g>
<g id="Layer_5">
	<g>
		<path d="M237.423,81.192l133.065,61.978c1.83,0.853,4.024,0.052,4.877-1.777l12.333-26.481c0.853-1.828,0.052-4.023-1.776-4.875
			L252.856,48.059c-1.83-0.852-4.025-0.052-4.877,1.778l-12.333,26.479C234.793,78.146,235.594,80.341,237.423,81.192z"/>
		<path d="M260.334,388.802l104.689-224.77c0.854-1.83,0.053-4.024-1.776-4.877L230.182,97.179c-1.83-0.853-4.025-0.053-4.877,1.777
			l-104.689,224.77c-0.854,1.83-1.182,4.936-0.729,6.904l26.386,115.203c0.449,1.967,3.289,2.823,5.085,1.902l104.163-53.932
			C257.315,392.882,259.483,390.632,260.334,388.802z M221.521,388.731c-1.767,0.977-4.681,2.529-6.478,3.449
			c0,0-29.139,14.943-39.939,20.483c-5.418,2.778-16.37-1.618-17.73-7.552c-2.754-12.029-10.201-44.543-10.201-44.543
			c-0.451-1.967-1.139-5.197-1.528-7.178c0,0-1.517-7.715-1.218-8.357c0.301-0.645,7.176,2.129,7.176,2.129
			c1.872,0.756,4.898,2.07,6.729,2.922l57.557,26.809c1.829,0.852,4.785,2.324,6.567,3.271c0,0,6.547,3.478,6.247,4.122
			S221.521,388.731,221.521,388.731z"/>
		<path d="M385.317,447.396H198.614c-3.85,0-7,3.149-7,7v2.887c0,3.85,3.15,7,7,7h186.703c3.851,0,7-3.15,7-7v-2.887
			C392.317,450.545,389.167,447.396,385.317,447.396z"/>
	</g>
</g>
</svg>
