<?xml version="1.0" encoding="utf-8"?>
<!-- Generator: Adobe Illustrator 16.0.0, SVG Export Plug-In . SVG Version: 6.00 Build 0)  -->
<!DOCTYPE svg PUBLIC "-//W3C//DTD SVG 1.1//EN" "http://www.w3.org/Graphics/SVG/1.1/DTD/svg11.dtd">
<svg version="1.1" xmlns="http://www.w3.org/2000/svg" xmlns:xlink="http://www.w3.org/1999/xlink" x="0px" y="0px" width="512px"
	 height="512px" viewBox="0 0 512 512" enable-background="new 0 0 512 512" xml:space="preserve">
<g id="Capa_2">
</g>
<g id="Artwork">
</g>
<g id="Layer_3">
</g>
<g id="Layer_4">
</g>
<g id="Layer_5">
	<path d="M256,66.313c-12.008,23.937-21.645,38.249-40.896,63.881c-38.867,51.744-107.596,107.198-107.596,171.608
		c0,82.01,66.482,148.492,148.492,148.492s148.492-66.482,148.492-148.492C404.492,202.748,273.49,31.447,256,66.313z
		 M241.184,420.476c-5.521,0-10-4.478-10-10s4.479-10,10-10c63.021,0,114.293-51.271,114.293-114.291c0-5.522,4.477-10,10-10
		c5.521,0,10,4.478,10,10C375.477,360.232,315.232,420.476,241.184,420.476z"/>
</g>
</svg>
