<?xml version="1.0" encoding="utf-8"?>
<!-- Generator: Adobe Illustrator 16.0.0, SVG Export Plug-In . SVG Version: 6.00 Build 0)  -->
<!DOCTYPE svg PUBLIC "-//W3C//DTD SVG 1.1//EN" "http://www.w3.org/Graphics/SVG/1.1/DTD/svg11.dtd">
<svg version="1.1" xmlns="http://www.w3.org/2000/svg" xmlns:xlink="http://www.w3.org/1999/xlink" x="0px" y="0px" width="512px"
	 height="512px" viewBox="0 0 512 512" enable-background="new 0 0 512 512" xml:space="preserve">
<g id="Capa_2">
</g>
<g id="Artwork">
</g>
<g id="Layer_3">
</g>
<g id="Layer_4">
</g>
<g id="Layer_5">
	<g>
		<path d="M309.764,200.013H69.629c-4.355,0-7.918,3.563-7.918,7.918v240.135c0,4.354,3.563,7.918,7.918,7.918h240.135
			c4.354,0,7.917-3.563,7.917-7.918V207.931C317.681,203.576,314.117,200.013,309.764,200.013z"/>
		<path d="M445.295,68.478H198.777c-3.65,0-6.632,2.985-6.632,6.632c0,0,0,56.778,0,104.47c0,4.242,4.263,4.356,4.263,4.356h134.764
			c3.275,0,5.304,3.12,5.304,5.676v134.144c0,0,0.153,4.503,4.431,4.503c47.672,0,104.389,0,104.389,0
			c3.646,0,6.631-2.983,6.631-6.631V75.109C451.926,71.463,448.94,68.478,445.295,68.478z"/>
	</g>
</g>
</svg>
