<?xml version="1.0" encoding="utf-8"?>
<!-- Generator: Adobe Illustrator 16.0.0, SVG Export Plug-In . SVG Version: 6.00 Build 0)  -->
<!DOCTYPE svg PUBLIC "-//W3C//DTD SVG 1.1//EN" "http://www.w3.org/Graphics/SVG/1.1/DTD/svg11.dtd">
<svg version="1.1" xmlns="http://www.w3.org/2000/svg" xmlns:xlink="http://www.w3.org/1999/xlink" x="0px" y="0px" width="512px"
	 height="512px" viewBox="0 0 512 512" enable-background="new 0 0 512 512" xml:space="preserve">
<g id="Capa_2">
</g>
<g id="Artwork">
</g>
<g id="Layer_3">
</g>
<g id="Layer_4">
</g>
<g id="Layer_5">
	<g>
		<g>
			<path d="M440.926,68.494c-2.006-0.903-5.447-1.642-7.647-1.642H157.95c-2.2,0-5.642,0.738-7.647,1.642l-2.333,2.332
				c-0.903,2.006-1.642,5.447-1.642,7.647c0,0,0,160.44,0,215.253c0,4.875,0.9,4.898,0.9,4.898c2.199,0.059,5.798,0.106,7.998,0.106
				h50.495c2.2,0,4.743,0.334,5.65,0.743c0.907,0.408,1.65,4.357,1.65,6.558v50.216c0,2.2,0.061,5.799,0.134,7.998
				c0,0,0.04,1.177,4.957,1.177c54.791,0,215.165,0,215.165,0c2.2,0,5.642-0.738,7.647-1.642l2.332-2.332
				c0.902-2.006,1.642-5.447,1.642-7.647V78.474c0-2.2-0.739-5.642-1.642-7.647L440.926,68.494z M413.509,103.174
				c0.593,1.541,0.936,4.596,0.762,6.788l-4.631,58.571c-0.174,2.193-0.836,4.877-1.472,5.964s-4.694-1.562-6.25-3.117l-7.162-7.162
				c-1.556-1.556-4.172-3.338-5.814-3.961c-1.644-0.623-6.527,2.404-8.085,3.958l-50.845,50.713
				c-1.558,1.554-4.176,3.335-5.819,3.959c-1.644,0.623-6.525-2.406-8.081-3.962l-15.971-15.971
				c-1.556-1.556-3.338-4.172-3.961-5.814s2.407-6.523,3.965-8.077l50.846-50.714c1.558-1.554,3.342-4.169,3.965-5.812
				s-2.405-6.525-3.961-8.081l-7.162-7.162c-1.556-1.556-3.167-3.802-3.581-4.991s4.235-2.557,6.428-2.73l58.57-4.63
				C407.441,100.769,412.916,101.634,413.509,103.174z"/>
		</g>
		<g>
			<path d="M67.101,441.147c0,2.2,1.8,4,4,4h121.318c2.2,0,4-1.8,4-4V319.829c0-2.2-1.8-4-4-4H71.101c-2.2,0-4,1.8-4,4V441.147z"/>
		</g>
	</g>
</g>
</svg>
