<?xml version="1.0" encoding="utf-8"?>
<!-- Generator: Adobe Illustrator 16.0.0, SVG Export Plug-In . SVG Version: 6.00 Build 0)  -->
<!DOCTYPE svg PUBLIC "-//W3C//DTD SVG 1.1//EN" "http://www.w3.org/Graphics/SVG/1.1/DTD/svg11.dtd">
<svg version="1.1" xmlns="http://www.w3.org/2000/svg" xmlns:xlink="http://www.w3.org/1999/xlink" x="0px" y="0px" width="512px"
	 height="512px" viewBox="0 0 512 512" enable-background="new 0 0 512 512" xml:space="preserve">
<g id="Capa_2">
</g>
<g id="Artwork">
</g>
<g id="Layer_3">
</g>
<g id="Layer_4">
</g>
<g id="Layer_5">
	<g>
		<path d="M176.017,404.777c0,4.438-3.857,9.441-8.571,11.119l-109.049,38.79c-4.716,1.677-8.572-0.582-8.572-5.021V107.223
			c0-4.438,3.856-9.441,8.572-11.119l109.049-38.79c4.714-1.677,8.571,0.582,8.571,5.021V404.777z"/>
		<path d="M319.097,449.666c0,4.438-3.858,6.697-8.573,5.021l-109.048-38.79c-4.715-1.678-8.571-6.682-8.571-11.119V62.334
			c0-4.438,3.856-6.697,8.571-5.021l109.048,38.79c4.715,1.678,8.573,6.682,8.573,11.119V449.666z"/>
		<path d="M462.176,404.777c0,4.438-3.856,9.441-8.572,11.119l-109.049,38.79c-4.714,1.677-8.572-0.582-8.572-5.021V107.223
			c0-4.438,3.858-9.441,8.572-11.119l109.049-38.79c4.716-1.677,8.572,0.582,8.572,5.021V404.777z"/>
	</g>
</g>
</svg>
