<?xml version="1.0" encoding="utf-8"?>
<!-- Generator: Adobe Illustrator 16.0.0, SVG Export Plug-In . SVG Version: 6.00 Build 0)  -->
<!DOCTYPE svg PUBLIC "-//W3C//DTD SVG 1.1//EN" "http://www.w3.org/Graphics/SVG/1.1/DTD/svg11.dtd">
<svg version="1.1" xmlns="http://www.w3.org/2000/svg" xmlns:xlink="http://www.w3.org/1999/xlink" x="0px" y="0px" width="512px"
	 height="512px" viewBox="0 0 512 512" enable-background="new 0 0 512 512" xml:space="preserve">
<g id="Capa_2">
</g>
<g id="Artwork">
</g>
<g id="Layer_3">
</g>
<g id="Layer_4">
</g>
<g id="Layer_5">
	<path d="M456.973,214.327c0-8.583-6.95-15.742-15.497-15.889l0,0H252.54c-7.021-1.589-12.308-7.885-12.308-15.369v-49.067
		c0-8.675-5.398-11.163-11.993-5.535L59.974,245.761c-6.598,5.633-6.598,14.846,0,20.479l168.262,117.29
		c6.598,5.632,11.996,3.147,11.996-5.528v-49.068c0-8.672,7.097-15.77,15.77-15.77l185.201-0.277
		c8.676-0.003,15.771-7.1,15.772-15.77L456.973,214.327z"/>
</g>
</svg>
