<?xml version="1.0" encoding="utf-8"?>
<!-- Generator: Adobe Illustrator 16.0.0, SVG Export Plug-In . SVG Version: 6.00 Build 0)  -->
<!DOCTYPE svg PUBLIC "-//W3C//DTD SVG 1.1//EN" "http://www.w3.org/Graphics/SVG/1.1/DTD/svg11.dtd">
<svg version="1.1" xmlns="http://www.w3.org/2000/svg" xmlns:xlink="http://www.w3.org/1999/xlink" x="0px" y="0px" width="512px"
	 height="512px" viewBox="0 0 512 512" enable-background="new 0 0 512 512" xml:space="preserve">
<g id="Capa_2">
</g>
<g id="Artwork">
</g>
<g id="Layer_3">
</g>
<g id="Layer_4">
</g>
<g id="Layer_5">
	<g>
		<path d="M288.332,250.721l14.805,6.844c4.979,2.303,10.936,0.112,13.237-4.866l73.17-157c2.302-4.979,0.112-10.936-4.866-13.238
			l-51.803-23.95c-4.979-2.303-10.937-0.112-13.238,4.866l-73.17,157.001c-2.302,4.979-0.111,10.936,4.867,13.237l14.805,6.845
			L288.332,250.721z"/>
		<path d="M315.405,296.243c2.435-5.265,0.118-11.564-5.147-13.999l-81.779-37.812c-5.266-2.435-11.566-0.118-14,5.147
			l-91.956,198.888c-2.435,5.266-0.186,7.442,4.998,4.838l140.726-70.711c5.184-2.604,11.416-9.043,13.85-14.309L315.405,296.243z"
			/>
	</g>
</g>
</svg>
