<?xml version="1.0" encoding="utf-8"?>
<!-- Generator: Adobe Illustrator 16.0.0, SVG Export Plug-In . SVG Version: 6.00 Build 0)  -->
<!DOCTYPE svg PUBLIC "-//W3C//DTD SVG 1.1//EN" "http://www.w3.org/Graphics/SVG/1.1/DTD/svg11.dtd">
<svg version="1.1" xmlns="http://www.w3.org/2000/svg" xmlns:xlink="http://www.w3.org/1999/xlink" x="0px" y="0px" width="512px"
	 height="512px" viewBox="0 0 512 512" enable-background="new 0 0 512 512" xml:space="preserve">
<g id="Capa_2">
</g>
<g id="Artwork">
</g>
<g id="Layer_3">
</g>
<g id="Layer_4">
</g>
<g id="Layer_5">
	<g>
		<path d="M373.126,299.783c-0.816-0.452-1.909-0.613-2.741,0.174c-18.606,17.596-73.56,68.674-73.56,68.674
			c-3.721,3.474-8.681,5.254-13.643,5.254c-3.981,0-7.965-1.146-11.313-3.482l-86.216-60.177c-0.771-0.487-1.821-1.188-3.887-0.331
			c0,0-81.852,37.977-109.799,51.064c-1.901,0.891-5.751,1.541-5.751,7.291c0,2.344,0,34.737,0,34.737
			c0,4.827,3.949,8.776,8.776,8.776h362.012c4.827,0,8.776-3.949,8.776-8.776c0,0,0-44.149,0-58.866c0-3.25-3.18-5.545-4.969-6.561
			C421.835,326.787,390.848,309.602,373.126,299.783z"/>
		<path d="M173.348,291.753c7.229-3.361,15.318-3.966,23.754,2.073c0,0,63.732,44.711,85.661,59.928
			c0.063,0.044,0.656,0.367,1.234-0.18c18.719-17.746,72.818-68.311,72.818-68.311c6.353-5.931,16.885-7.245,24.499-3.06
			c0,0,40.288,23.735,55.871,33.241c4.576,2.792,8.597-0.445,8.597-7.445c0-50.892,0-198.987,0-198.987
			c0-4.827-3.949-8.776-8.776-8.776H74.994c-4.827,0-8.776,3.949-8.776,8.776c0,0,0,162.877,0,219.987
			c0,10.5,9.002,8.391,9.002,8.391L173.348,291.753z M318.53,158.723c17.368,0,31.447,14.079,31.447,31.447
			c0,17.367-14.079,31.447-31.447,31.447s-31.447-14.08-31.447-31.447C287.083,172.802,301.162,158.723,318.53,158.723z"/>
	</g>
</g>
</svg>
