<?xml version="1.0" encoding="utf-8"?>
<!-- Generator: Adobe Illustrator 16.0.0, SVG Export Plug-In . SVG Version: 6.00 Build 0)  -->
<!DOCTYPE svg PUBLIC "-//W3C//DTD SVG 1.1//EN" "http://www.w3.org/Graphics/SVG/1.1/DTD/svg11.dtd">
<svg version="1.1" xmlns="http://www.w3.org/2000/svg" xmlns:xlink="http://www.w3.org/1999/xlink" x="0px" y="0px" width="512px"
	 height="512px" viewBox="0 0 512 512" enable-background="new 0 0 512 512" xml:space="preserve">
<g id="Capa_2">
</g>
<g id="Artwork">
</g>
<g id="Layer_3">
</g>
<g id="Layer_4">
</g>
<g id="Layer_5">
	<g>
		<path d="M308.159,166.609l-13.991-6.808c-4.692-2.284-10.363-0.326-12.647,4.366l-82.047,168.593
			c-2.282,4.688-0.324,10.359,4.369,12.644l13.989,6.809c4.689,2.281,10.361,0.323,12.643-4.365l82.048-168.593
			C314.806,174.563,312.848,168.892,308.159,166.609z"/>
		<path d="M224.928,223.411c1.683,2.523,6.635,4.55,8.544,0.618c3.949-8.133,10.462-21.538,13.263-27.233
			c2.505-5.095,0.673-13.37,0.069-16.883c-1.051-6.121-0.717-12.124,1.801-17.298l29.75-61.129
			c9.7-19.933,40.882-24.611,60.233-15.193c0.233,0.113,0.462,0.241,0.694,0.359c0.236,0.111,0.479,0.215,0.709,0.33
			c19.273,9.578,34.604,37.131,24.738,56.982l-30.254,60.881c-2.56,5.152-7.11,9.082-12.601,11.986
			c-3.15,1.667-10.823,5.268-13.329,10.362c-2.801,5.695-9.441,19.038-13.473,27.13c-1.949,3.912,2.68,6.599,5.705,6.39
			c26.52-1.824,54.539-14.379,66.945-39.346l30.254-60.88c17.968-36.157-1.795-87.041-41.464-106.754
			c-0.28-0.139-0.563-0.27-0.843-0.404c-0.279-0.141-0.555-0.284-0.836-0.421c-39.83-19.384-92.197-3.973-109.866,32.331
			l-29.75,61.129C203.021,171.438,210.183,201.294,224.928,223.411z"/>
		<path d="M287.073,288.588c-1.683-2.523-6.636-4.55-8.545-0.617c-3.948,8.133-10.461,21.538-13.262,27.233
			c-2.506,5.095-0.674,13.369-0.07,16.883c1.051,6.121,0.717,12.124-1.801,17.297l-29.75,61.129
			c-9.701,19.933-40.883,24.612-60.234,15.194c-0.233-0.113-0.463-0.241-0.695-0.359c-0.235-0.111-0.478-0.216-0.709-0.33
			c-19.273-9.578-34.604-37.131-24.738-56.983l30.254-60.881c2.561-5.151,7.111-9.081,12.601-11.985
			c3.151-1.667,10.823-5.268,13.329-10.362c2.801-5.695,9.441-19.037,13.473-27.131c1.949-3.912-2.68-6.598-5.705-6.39
			c-26.52,1.825-54.539,14.38-66.945,39.347l-30.254,60.88c-17.968,36.157,1.796,87.041,41.465,106.754
			c0.279,0.139,0.563,0.27,0.843,0.404c0.278,0.141,0.555,0.284,0.836,0.421c39.829,19.384,92.198,3.973,109.866-32.331
			l29.749-61.129C308.979,340.563,301.817,310.706,287.073,288.588z"/>
	</g>
</g>
</svg>
