<?xml version="1.0" encoding="utf-8"?>
<!-- Generator: Adobe Illustrator 16.0.0, SVG Export Plug-In . SVG Version: 6.00 Build 0)  -->
<!DOCTYPE svg PUBLIC "-//W3C//DTD SVG 1.1//EN" "http://www.w3.org/Graphics/SVG/1.1/DTD/svg11.dtd">
<svg version="1.1" xmlns="http://www.w3.org/2000/svg" xmlns:xlink="http://www.w3.org/1999/xlink" x="0px" y="0px" width="512px"
	 height="512px" viewBox="0 0 512 512" enable-background="new 0 0 512 512" xml:space="preserve">
<g id="Capa_2">
</g>
<g id="Artwork">
</g>
<g id="Layer_3">
</g>
<g id="Layer_4">
</g>
<g id="Layer_5">
	<path d="M401.309,66.041h-288.98c-4.828,0-8.776,3.948-8.776,8.776v374.827c0,4.828,3.948,8.775,8.776,8.775h288.98
		c4.827,0,8.776-3.947,8.776-8.775V74.817C410.085,69.989,406.136,66.041,401.309,66.041z M148.941,400.227
		c-9.323,0-16.882-7.559-16.882-16.883s7.559-16.883,16.882-16.883c9.324,0,16.883,7.559,16.883,16.883
		S158.266,400.227,148.941,400.227z M148.941,319.485c-9.323,0-16.882-7.559-16.882-16.884c0-9.324,7.559-16.883,16.882-16.883
		c9.324,0,16.883,7.559,16.883,16.883C165.824,311.927,158.266,319.485,148.941,319.485z M148.941,238.742
		c-9.323,0-16.882-7.559-16.882-16.882c0-9.325,7.559-16.884,16.882-16.884c9.324,0,16.883,7.559,16.883,16.884
		C165.824,231.184,158.266,238.742,148.941,238.742z M148.941,158c-9.323,0-16.882-7.558-16.882-16.883
		c0-9.324,7.559-16.882,16.882-16.882c9.324,0,16.883,7.558,16.883,16.882C165.824,150.442,158.266,158,148.941,158z
		 M374.229,389.165c0,1.649-1.35,3-3,3H200.233c-1.649,0-3-1.351-3-3v-10.887c0-1.649,1.351-3,3-3h170.995c1.65,0,3,1.351,3,3
		V389.165z M374.229,308.165c0,1.649-1.35,3-3,3H200.233c-1.649,0-3-1.351-3-3v-10.887c0-1.649,1.351-3,3-3h170.995
		c1.65,0,3,1.351,3,3V308.165z M374.229,227.165c0,1.649-1.35,3-3,3H200.233c-1.649,0-3-1.351-3-3v-10.887c0-1.649,1.351-3,3-3
		h170.995c1.65,0,3,1.351,3,3V227.165z M374.229,146.165c0,1.649-1.35,3-3,3H200.233c-1.649,0-3-1.351-3-3v-10.887
		c0-1.649,1.351-3,3-3h170.995c1.65,0,3,1.351,3,3V146.165z"/>
</g>
</svg>
