<?xml version="1.0" encoding="utf-8"?>
<!-- Generator: Adobe Illustrator 16.0.0, SVG Export Plug-In . SVG Version: 6.00 Build 0)  -->
<!DOCTYPE svg PUBLIC "-//W3C//DTD SVG 1.1//EN" "http://www.w3.org/Graphics/SVG/1.1/DTD/svg11.dtd">
<svg version="1.1" xmlns="http://www.w3.org/2000/svg" xmlns:xlink="http://www.w3.org/1999/xlink" x="0px" y="0px" width="512px"
	 height="512px" viewBox="0 0 512 512" enable-background="new 0 0 512 512" xml:space="preserve">
<g id="Capa_2">
</g>
<g id="Artwork">
</g>
<g id="Layer_3">
</g>
<g id="Layer_4">
</g>
<g id="Layer_5">
	<g>
		<path d="M320.117,75.516c-63.468-30.107-139.324-3.063-169.432,60.404c-30.107,63.467-3.064,139.324,60.403,169.432
			c63.467,30.107,139.324,3.064,169.432-60.403S383.585,105.623,320.117,75.516z M345.685,228.423
			c-20.98,44.228-73.843,63.073-118.07,42.093c-44.229-20.98-63.073-73.843-42.093-118.07c20.98-44.229,73.843-63.074,118.07-42.094
			C347.819,131.333,366.665,184.195,345.685,228.423z"/>
		<path d="M184.932,311.647c-3.551-1.685-7.833-0.157-9.517,3.393L119.86,421.063c-1.684,3.55-0.157,7.833,3.393,9.517
			l36.938,17.522c3.55,1.685,7.833,0.157,9.517-3.393l55.554-106.022c1.685-3.551,0.157-7.833-3.393-9.518L184.932,311.647z"/>
		<path d="M309.482,174.344h-87.76c-1.206,0-2.194,0.988-2.194,2.194v27.791c0,1.206,0.988,2.194,2.194,2.194h87.76
			c1.207,0,2.194-0.988,2.194-2.194v-27.791C311.677,175.332,310.689,174.344,309.482,174.344z"/>
	</g>
</g>
</svg>
