<?xml version="1.0" encoding="utf-8"?>
<!-- Generator: Adobe Illustrator 16.0.0, SVG Export Plug-In . SVG Version: 6.00 Build 0)  -->
<!DOCTYPE svg PUBLIC "-//W3C//DTD SVG 1.1//EN" "http://www.w3.org/Graphics/SVG/1.1/DTD/svg11.dtd">
<svg version="1.1" xmlns="http://www.w3.org/2000/svg" xmlns:xlink="http://www.w3.org/1999/xlink" x="0px" y="0px" width="512px"
	 height="512px" viewBox="0 0 512 512" enable-background="new 0 0 512 512" xml:space="preserve">
<g id="Capa_2">
</g>
<g id="Artwork">
</g>
<g id="Layer_3">
</g>
<g id="Layer_4">
</g>
<g id="Layer_5">
	<g>
		<path d="M300.916,335.309c4.426,2.148,10.875,2.524,13.299-3.205c25.512-60.286,87.316-209.612,87.316-209.612
			c1.754-4.497-0.375-9.884-4.729-11.969L270.17,49.854c-4.354-2.085-9.885-0.368-12.291,3.815c0,0-78.389,141.583-107.955,198.096
			c-2.826,5.402-1.744,9.614,2.6,11.725C196.521,284.866,248.984,310.098,300.916,335.309z"/>
		<path d="M141.084,277.637c-2.178-1.043-4.9-0.161-6.053,1.96l-9.941,18.298c-1.152,2.121-1.705,5.792-1.232,8.158l14.338,53.236
			c0.617,2.333,2.902,5.096,5.078,6.139l87.061,41.709c2.176,1.042,5.826,1.261,8.113,0.484l47.146-15.722
			c2.232-0.914,4.822-3.483,5.752-5.711l11.041-26.416c0.93-2.228-0.09-4.901-2.266-5.944L141.084,277.637z"/>
		<path d="M140.141,393.72c2.021-4.22,7.127-6.018,11.346-3.996l53.65,25.702c4.219,2.021,5.752,6.986,3.406,11.035l-16.924,29.211
			c-2.346,4.049-8.092,7.36-12.771,7.36h-63.408c-4.678,0-6.852-3.452-4.83-7.671L140.141,393.72z"/>
	</g>
</g>
</svg>
