<?xml version="1.0" encoding="utf-8"?>
<!-- Generator: Adobe Illustrator 16.0.0, SVG Export Plug-In . SVG Version: 6.00 Build 0)  -->
<!DOCTYPE svg PUBLIC "-//W3C//DTD SVG 1.1//EN" "http://www.w3.org/Graphics/SVG/1.1/DTD/svg11.dtd">
<svg version="1.1" xmlns="http://www.w3.org/2000/svg" xmlns:xlink="http://www.w3.org/1999/xlink" x="0px" y="0px" width="512px"
	 height="512px" viewBox="0 0 512 512" enable-background="new 0 0 512 512" xml:space="preserve">
<g id="Capa_2">
</g>
<g id="Artwork">
</g>
<g id="Layer_3">
</g>
<g id="Layer_4">
</g>
<g id="Layer_5">
	<path d="M394.064,174.352l-69.48-37.307l22.389-41.699c0.636-1.186,2.122-1.63,3.31-0.993l53.127,28.525
		c8.996,4.831,20.244,1.438,25.076-7.56c0,0,18.855-35.092,25.128-46.797c4.523-8.441-9.766-15.815-14.165-7.606
		c-6.273,11.705-25.127,46.798-25.127,46.798c-0.637,1.185-2.118,1.633-3.306,0.996L357.89,80.185
		c-8.998-4.832-20.252-1.442-25.082,7.557l-22.389,41.698l-0.017-0.009c0,0-10.571,19.726-14.095,26.301
		c-2.156,4.021,0.65,5.195,2.519,6.617c8.16,6.21,3.886,16.481-1.235,26.039l-13.227,24.68c-5.122,9.557-11.176,16.188-21.052,13.43
		c-1.832-0.511-3.909-1.906-6.704,3.31c-1.943,3.627-7.776,14.509-7.776,14.509c-1.818,3.394-6.084,4.682-9.477,2.863l-2.544-1.363
		c-3.394-1.818-4.683-6.083-2.863-9.477c0,0,5.832-10.882,7.776-14.509c2.657-4.958,0.044-6.282-1.42-7.511
		c-7.858-6.589-5.133-15.313-0.011-24.871l13.227-24.679c5.121-9.557,10.995-18.985,20.682-15.618
		c1.746,0.608,4.947,2.846,7.25-1.451c2.701-5.04,10.806-20.162,10.806-20.162s4.188-5.602-2.753-9.322
		c-17.896-9.592-71.555-38.424-71.555-38.424c-10.4-5.584-23.479-1.645-29.063,8.755l-48.638,90.585l0,0L60.051,328.499
		c-5.583,10.4-1.644,23.479,8.757,29.063l176.117,94.559c10.399,5.585,23.477,1.644,29.061-8.756l79.725-148.486l0.001,0.002
		l49.111-91.468C408.405,193.013,404.465,179.936,394.064,174.352z"/>
</g>
</svg>
