<?xml version="1.0" encoding="utf-8"?>
<!-- Generator: Adobe Illustrator 16.0.0, SVG Export Plug-In . SVG Version: 6.00 Build 0)  -->
<!DOCTYPE svg PUBLIC "-//W3C//DTD SVG 1.1//EN" "http://www.w3.org/Graphics/SVG/1.1/DTD/svg11.dtd">
<svg version="1.1" xmlns="http://www.w3.org/2000/svg" xmlns:xlink="http://www.w3.org/1999/xlink" x="0px" y="0px" width="512px"
	 height="512px" viewBox="0 0 512 512" enable-background="new 0 0 512 512" xml:space="preserve">
<g id="Capa_2">
</g>
<g id="Artwork">
</g>
<g id="Layer_3">
</g>
<g id="Layer_4">
</g>
<g id="Layer_5">
	<g>
		<path d="M408.639,181.384c-29.992,0-119.967,0-119.967,0c-2.918,0-5.306-2.387-5.306-5.305V61.58c0,0,0.085-4.821-4.665-4.821
			c-42.904,0-171.616,0-171.616,0c-4.826,0-8.776,3.95-8.776,8.776v380.93c0,4.826,3.95,8.776,8.776,8.776h297.83
			c4.827,0,8.776-3.95,8.776-8.776V186.642C413.691,186.642,413.691,181.384,408.639,181.384z"/>
		<path d="M307.105,164.619h102.908c3.715,0,4.553-2.119,1.864-4.708L305.241,58.217c-2.688-2.59-4.889-1.637-4.889,2.117v97.459
			C300.353,161.549,303.391,164.619,307.105,164.619z"/>
	</g>
</g>
</svg>
