<?xml version="1.0" encoding="utf-8"?>
<!-- Generator: Adobe Illustrator 16.0.0, SVG Export Plug-In . SVG Version: 6.00 Build 0)  -->
<!DOCTYPE svg PUBLIC "-//W3C//DTD SVG 1.1//EN" "http://www.w3.org/Graphics/SVG/1.1/DTD/svg11.dtd">
<svg version="1.1" xmlns="http://www.w3.org/2000/svg" xmlns:xlink="http://www.w3.org/1999/xlink" x="0px" y="0px" width="512px"
	 height="512px" viewBox="0 0 512 512" enable-background="new 0 0 512 512" xml:space="preserve">
<g id="Capa_2">
</g>
<g id="Artwork">
</g>
<g id="Layer_3">
</g>
<g id="Layer_4">
</g>
<g id="Layer_5">
	<path d="M392.263,200.795H161.84v-25.58c0-51.92,42.24-94.16,94.16-94.16c35.139,0,67.115,19.352,83.452,50.5
		c4.473,8.531,15.015,11.818,23.544,7.346c8.53-4.475,11.818-15.016,7.345-23.545C347.962,72.684,304.148,46.176,256,46.176
		c-71.152,0-129.039,57.887-129.039,129.039v25.58h-7.224c-4.942,0-8.985,4.045-8.985,8.986v247.057
		c0,4.941,4.043,8.986,8.985,8.986h272.525c4.941,0,8.985-4.045,8.985-8.986V209.781
		C401.248,204.84,397.204,200.795,392.263,200.795z M278.818,346.105c0,5.674,0.022,37.701,0.022,37.701
		c0,12.615-10.226,22.842-22.841,22.842s-22.842-10.227-22.842-22.842c0,0,0.024-32.027,0.024-37.701
		c0-12.115-23.276-11.385-23.276-40.043c0-25.457,20.638-46.094,46.094-46.094s46.093,20.637,46.093,46.094
		C302.093,334.721,278.818,333.99,278.818,346.105z"/>
</g>
</svg>
