<?xml version="1.0" encoding="utf-8"?>
<!-- Generator: Adobe Illustrator 16.0.0, SVG Export Plug-In . SVG Version: 6.00 Build 0)  -->
<!DOCTYPE svg PUBLIC "-//W3C//DTD SVG 1.1//EN" "http://www.w3.org/Graphics/SVG/1.1/DTD/svg11.dtd">
<svg version="1.1" xmlns="http://www.w3.org/2000/svg" xmlns:xlink="http://www.w3.org/1999/xlink" x="0px" y="0px" width="512px"
	 height="512px" viewBox="0 0 512 512" enable-background="new 0 0 512 512" xml:space="preserve">
<g id="Capa_2">
</g>
<g id="Artwork">
</g>
<g id="Layer_3">
</g>
<g id="Layer_4">
</g>
<g id="Layer_5">
	<path d="M392.263,200.795h-7.225v-25.579c0-71.153-57.886-129.04-129.038-129.04s-129.039,57.887-129.039,129.04v25.579h-7.224
		c-4.941,0-8.985,4.044-8.985,8.986v247.057c0,4.942,4.044,8.986,8.985,8.986h272.525c4.941,0,8.985-4.044,8.985-8.986V209.781
		C401.248,204.839,397.204,200.795,392.263,200.795z M161.84,175.216c0-51.921,42.24-94.161,94.16-94.161
		s94.159,42.24,94.159,94.161v25.579H161.84V175.216z M278.817,346.105c0,5.674,0.023,37.701,0.023,37.701
		c0,12.615-10.226,22.842-22.841,22.842s-22.841-10.227-22.841-22.842c0,0,0.023-32.027,0.023-37.701
		c0-12.116-23.275-11.385-23.275-40.043c0-25.457,20.637-46.093,46.093-46.093s46.093,20.636,46.093,46.093
		C302.093,334.721,278.817,333.989,278.817,346.105z"/>
</g>
</svg>
