<?xml version="1.0" encoding="utf-8"?>
<!-- Generator: Adobe Illustrator 16.0.0, SVG Export Plug-In . SVG Version: 6.00 Build 0)  -->
<!DOCTYPE svg PUBLIC "-//W3C//DTD SVG 1.1//EN" "http://www.w3.org/Graphics/SVG/1.1/DTD/svg11.dtd">
<svg version="1.1" xmlns="http://www.w3.org/2000/svg" xmlns:xlink="http://www.w3.org/1999/xlink" x="0px" y="0px" width="512px"
	 height="512px" viewBox="0 0 512 512" enable-background="new 0 0 512 512" xml:space="preserve">
<g id="Capa_2">
</g>
<g id="Artwork">
</g>
<g id="Layer_3">
</g>
<g id="Layer_4">
</g>
<g id="Layer_5">
	<g>
		<path d="M336.004,217.301L226.375,164.63c0,0-5.76-3.016-8.412,2.509c-3.411,7.105-11.017,22.932-15.994,33.295
			c-1.207,2.512-3.086,6.355,3.201,9.374l28.756,13.806c3.47,1.666,4.947,5.87,3.279,9.341l-1.249,2.603
			c-1.667,3.471-5.869,4.946-9.34,3.28c0,0-21.462-10.304-28.614-13.739c-6.43-3.086-9.484,3.336-9.484,3.336l-3.916,8.149
			c0,0-2.916,6.024,3.428,9.07c7.176,3.444,28.699,13.778,28.699,13.778c3.471,1.666,4.947,5.869,3.28,9.34l-1.249,2.604
			c-1.667,3.47-5.871,4.945-9.34,3.279c0,0-21.589-10.364-28.785-13.818c-6.259-3.006-9.238,3.229-9.238,3.229l-3.99,8.311
			c0,0-2.918,6.05,3.463,9.112c7.166,3.44,28.662,13.762,28.662,13.762c3.471,1.666,4.947,5.869,3.28,9.34l-1.249,2.602
			c-1.666,3.472-5.869,4.947-9.34,3.281c0,0-21.44-10.294-28.587-13.725c-6.457-3.101-9.511,3.27-9.511,3.27l-8.322,17.323
			c-16.947,35.276-15.338,77.267,9.793,99.906l-10.697,22.271c-0.969,2.018-0.112,4.46,1.904,5.428l19.681,9.455
			c2.016,0.969,4.458,0.111,5.427-1.904l10.7-22.271c33.382,5.471,67.168-19.516,84.113-54.793c0,0,54.14-112.668,72.173-150.229
			C341.452,219.88,336.004,217.301,336.004,217.301z"/>
		<path d="M368.412,199.662c-3.503-1.684-14.013-6.733-14.013-6.733l11.731-24.419c20.175-41.99,13.774-86.962-23.934-105.078
			c-37.709-18.115-76.814,4.995-96.988,46.986l-11.729,24.418c0,0-10.509-5.049-14.013-6.73c-6.203-2.979-11.796,8.768-5.633,11.726
			c37.24,17.88,111.704,53.675,148.945,71.556C368.832,214.293,374.537,202.602,368.412,199.662z"/>
	</g>
</g>
</svg>
