<?xml version="1.0" encoding="utf-8"?>
<!-- Generator: Adobe Illustrator 16.0.0, SVG Export Plug-In . SVG Version: 6.00 Build 0)  -->
<!DOCTYPE svg PUBLIC "-//W3C//DTD SVG 1.1//EN" "http://www.w3.org/Graphics/SVG/1.1/DTD/svg11.dtd">
<svg version="1.1" xmlns="http://www.w3.org/2000/svg" xmlns:xlink="http://www.w3.org/1999/xlink" x="0px" y="0px" width="512px"
	 height="512px" viewBox="0 0 512 512" enable-background="new 0 0 512 512" xml:space="preserve">
<g id="Capa_2">
</g>
<g id="Artwork">
</g>
<g id="Layer_3">
</g>
<g id="Layer_4">
</g>
<g id="Layer_5">
	<g>
		<path d="M126.479,325.274c-2.75,0-5,2.25-5,5v123.82c0,2.75,2.25,5,5,5h111.053c2.75,0,5.227-2.238,5.503-4.975l3.032-40.92
			c0.33-2.729,3.975-2.744,4.428-0.032l4.344,40.985c0.424,2.717,3.021,4.941,5.771,4.941h26.581c2.75,0,5.206-2.24,5.457-4.98
			l4.792-64.237c0.311-2.731,3.944-2.75,4.408-0.038l7.467,64.311c0.404,2.719,2.986,4.945,5.736,4.945h13.797
			c2.75,0,5.324-2.227,5.721-4.948l1.836-23.647c0.721-2.652,4.092-2.713,5.045-0.133l3.629,23.848
			c0.599,2.684,3.338,4.881,6.088,4.881h34.355c2.75,0,5-2.25,5-5v-123.82c0-2.75-2.25-5-5-5H126.479z"/>
		<path d="M385.521,308.386c2.75,0,5-2.25,5-5v-52.938c0-2.75-2.25-5-5-5H126.479c-2.75,0-5,2.25-5,5v52.938c0,2.75,2.25,5,5,5
			H385.521z"/>
		<path d="M287.311,52.905h-62.621c-5.922,0-10.768,4.846-10.768,10.77l8.775,154.117c0,5.922,4.846,10.768,10.769,10.768h45.068
			c5.923,0,10.769-4.846,10.769-10.768l8.776-154.117C298.079,57.751,293.232,52.905,287.311,52.905z"/>
	</g>
</g>
</svg>
