<?xml version="1.0" encoding="utf-8"?>
<!-- Generator: Adobe Illustrator 16.0.0, SVG Export Plug-In . SVG Version: 6.00 Build 0)  -->
<!DOCTYPE svg PUBLIC "-//W3C//DTD SVG 1.1//EN" "http://www.w3.org/Graphics/SVG/1.1/DTD/svg11.dtd">
<svg version="1.1" xmlns="http://www.w3.org/2000/svg" xmlns:xlink="http://www.w3.org/1999/xlink" x="0px" y="0px" width="512px"
	 height="512px" viewBox="0 0 512 512" enable-background="new 0 0 512 512" xml:space="preserve">
<g id="Capa_2">
</g>
<g id="Artwork">
</g>
<g id="Layer_3">
</g>
<g id="Layer_4">
</g>
<g id="Layer_5">
	<g>
		<path d="M265.162,232.456c-45.061-21.617-100.526,0.334-123.886,49.029c-34.3,71.5,42.761,99.834-20.174,163.534
			c-35.124,35.552,145.265-5.858,183.353-85.254C327.814,311.07,310.223,254.072,265.162,232.456z"/>
		<path d="M391.826,98.985l-92.113-44.188c-3.52-1.688-7.376-0.029-8.568,3.688c0,0-20.056,60.925-27.049,84.287
			c-1.768,5.902-3.498,9.161,1.848,11.724c16.004,7.675,51.77,24.84,69.734,33.455c4.662,2.236,6.799-1.559,9.932-6.291
			c12.629-19.074,48.702-73.683,48.702-73.683C396.465,104.719,395.346,100.673,391.826,98.985z"/>
		<path d="M325.658,202.34c-15.836-7.594-48.77-23.401-64.605-30.995c-6.381-3.06-7.568,3.75-8.57,6.469
			c-2.311,6.267-8.163,25.437-8.163,25.437c-1.192,3.717,0.991,7.22,4.854,7.785c0,0,14.877,2.175,25.26,7.155
			c12.85,6.165,26.676,20.937,26.676,20.937c2.666,2.85,6.61,2.518,8.763-0.739c0,0,13.024-18.761,16.773-25.377
			C328.021,210.582,331.373,205.08,325.658,202.34z"/>
	</g>
</g>
</svg>
