<?xml version="1.0" encoding="utf-8"?>
<!-- Generator: Adobe Illustrator 16.0.0, SVG Export Plug-In . SVG Version: 6.00 Build 0)  -->
<!DOCTYPE svg PUBLIC "-//W3C//DTD SVG 1.1//EN" "http://www.w3.org/Graphics/SVG/1.1/DTD/svg11.dtd">
<svg version="1.1" xmlns="http://www.w3.org/2000/svg" xmlns:xlink="http://www.w3.org/1999/xlink" x="0px" y="0px" width="512px"
	 height="512px" viewBox="0 0 512 512" enable-background="new 0 0 512 512" xml:space="preserve">
<g id="Capa_2">
</g>
<g id="Artwork">
</g>
<g id="Layer_3">
</g>
<g id="Layer_4">
</g>
<g id="Layer_5">
	<g>
		<path d="M367.705,171.454c0,5.556-4.545,10.102-10.102,10.102H100.742c-5.557,0-10.102-4.546-10.102-10.102V63.369
			c0-5.557,4.545-10.102,10.102-10.102h256.861c5.557,0,10.102,4.544,10.102,10.102V171.454z"/>
		<path d="M403.514,109.321c0,0-4.93,0-11.875,0c-9.139,0-9.139,15.499,0,15.499c6.611,0,11.875,0,11.875,0
			c1.297,0,2.352,1.057,2.352,2.353V216.4c0,1.296-1.055,2.353-2.352,2.353H251.33c-9.844,0-17.852,8.009-17.852,17.852
			c0,0,0,60.614,0,77.323c0,8.957,15.494,9.124,15.494,0c0-16.876,0-77.323,0-77.323c0-1.296,1.059-2.353,2.357-2.353h152.184
			c9.842,0,17.846-8.009,17.846-17.852v-89.228C421.359,117.33,413.355,109.321,403.514,109.321z"/>
		<path d="M277.418,448.631c0,5.555-4.545,10.102-10.102,10.102h-50.508c-5.555,0-10.102-4.547-10.102-10.102V347.945
			c0-5.556,4.547-10.102,10.102-10.102h50.508c5.557,0,10.102,4.546,10.102,10.102V448.631z"/>
	</g>
</g>
</svg>
