<?xml version="1.0" encoding="utf-8"?>
<!-- Generator: Adobe Illustrator 16.0.0, SVG Export Plug-In . SVG Version: 6.00 Build 0)  -->
<!DOCTYPE svg PUBLIC "-//W3C//DTD SVG 1.1//EN" "http://www.w3.org/Graphics/SVG/1.1/DTD/svg11.dtd">
<svg version="1.1" xmlns="http://www.w3.org/2000/svg" xmlns:xlink="http://www.w3.org/1999/xlink" x="0px" y="0px" width="512px"
	 height="512px" viewBox="0 0 512 512" enable-background="new 0 0 512 512" xml:space="preserve">
<g id="Capa_2">
</g>
<g id="Artwork">
</g>
<g id="Layer_3">
</g>
<g id="Layer_4">
</g>
<g id="Layer_5">
	<path d="M231.541,77.351C109.178,111.283,24.002,247.584,65.25,347.01c32.727,78.883,130.766,132.874,253.232,97.16
		c123.996-36.16,152-155.937,136.571-179.969c-32.134-50.052-58.538,36.213-71.729-1.898c-11.482-33.172,42.21-112.112-3.93-159.386
		C334.572,56.992,265.053,68.057,231.541,77.351z M81.769,293.652c-4.594-13.273,2.653-27.076,16.189-30.83
		c13.535-3.753,28.232,3.964,32.827,17.237c4.594,13.273-2.654,27.076-16.189,30.83S86.363,306.926,81.769,293.652z
		 M132.418,364.429c-4.595-13.273,2.653-27.076,16.188-30.83c13.535-3.753,28.232,3.964,32.827,17.237s-2.653,27.077-16.188,30.83
		C151.709,385.42,137.013,377.702,132.418,364.429z M247.465,413.902c-13.536,3.754-28.232-3.964-32.827-17.237
		s2.653-27.076,16.188-30.83c13.535-3.753,28.232,3.964,32.827,17.237S261,410.149,247.465,413.902z M353.078,374.889
		c4.594,13.273-2.653,27.076-16.189,30.83c-13.535,3.753-28.232-3.964-32.826-17.237c-4.595-13.273,2.652-27.077,16.188-30.83
		C333.786,353.897,348.483,361.615,353.078,374.889z M322.611,156.148c7.74,22.361-4.47,45.614-27.271,51.937
		c-22.802,6.323-47.561-6.677-55.301-29.038c-7.74-22.36,4.47-45.613,27.271-51.937S314.872,133.788,322.611,156.148z"/>
</g>
</svg>
