<?xml version="1.0" encoding="utf-8"?>
<!-- Generator: Adobe Illustrator 16.0.0, SVG Export Plug-In . SVG Version: 6.00 Build 0)  -->
<!DOCTYPE svg PUBLIC "-//W3C//DTD SVG 1.1//EN" "http://www.w3.org/Graphics/SVG/1.1/DTD/svg11.dtd">
<svg version="1.1" xmlns="http://www.w3.org/2000/svg" xmlns:xlink="http://www.w3.org/1999/xlink" x="0px" y="0px" width="512px"
	 height="512px" viewBox="0 0 512 512" enable-background="new 0 0 512 512" xml:space="preserve">
<g id="Capa_2">
</g>
<g id="Artwork">
</g>
<g id="Layer_3">
</g>
<g id="Layer_4">
</g>
<g id="Layer_5">
	<path d="M392.714,127.591c-10.052,0-18.202,8.149-18.202,18.202v79.334c0,4.365-3.923,7.906-8.764,7.906
		c-4.842,0-8.765-3.541-8.765-7.906V112.622c-0.013-12.071-9.8-21.851-21.87-21.851c-12.083,0-21.875,9.793-21.875,21.873
		c0,0,0.06,112.416,0,112.443v0.039c0,4.365-3.698,7.906-8.263,7.906s-8.265-3.541-8.265-7.906V81.544
		c-0.012-13.084-10.622-23.688-23.707-23.688c-13.096,0-23.711,10.614-23.711,23.711c0,0-0.024,142.38-0.024,144.031
		c-0.246,4.146-3.676,7.436-7.884,7.436c-4.367,0-7.907-3.541-7.907-7.906V102.271c0-13.096-10.614-23.71-23.708-23.71
		c-13.096,0-23.711,10.614-23.711,23.71c-0.219,171.794-0.218,171.794-0.234,186.018c0,5.369,0.104,16.906-2.484,18.836
		c-2.149,1.603-5.012-0.388-8.477-5.067c-7.863-10.617-19.216-27.481-27.484-38.752c-7.838-10.686-20.218-22.288-34.271-14.602
		c-13.364,7.311-15.628,26.045-6.591,38.313c0,0,58.548,85.917,78.556,115.789c11.712,17.485,14.854,23.026,18.892,28.77
		c15.388,21.886,23.975,22.57,48.791,22.57c26.771,0,102.836,0,102.836,0c55.323,0,55.323-65.666,55.323-93.693V155.799
		C410.915,135.74,402.767,127.591,392.714,127.591z"/>
</g>
</svg>
