<?xml version="1.0" encoding="utf-8"?>
<!-- Generator: Adobe Illustrator 16.0.0, SVG Export Plug-In . SVG Version: 6.00 Build 0)  -->
<!DOCTYPE svg PUBLIC "-//W3C//DTD SVG 1.1//EN" "http://www.w3.org/Graphics/SVG/1.1/DTD/svg11.dtd">
<svg version="1.1" xmlns="http://www.w3.org/2000/svg" xmlns:xlink="http://www.w3.org/1999/xlink" x="0px" y="0px" width="512px"
	 height="512px" viewBox="0 0 512 512" enable-background="new 0 0 512 512" xml:space="preserve">
<g id="Capa_2">
</g>
<g id="Artwork">
</g>
<g id="Layer_3">
</g>
<g id="Layer_4">
</g>
<g id="Layer_5">
	<g>
		<path d="M385.522,250.696l-39.735-108.459c-1.673-4.564-6.899-8.299-11.616-8.299h-156.34c-4.717,0-9.943,3.734-11.615,8.299
			l-39.736,108.459c-1.674,4.564-1.234,11.828,0.975,16.142l89.529,181.612c2.208,4.313,7.874,7.842,12.591,7.842h11.643
			c4.717,0,8.44-3.991,8.275-8.869l-2.705-178.517c-0.167-4.878-3.434-11.202-7.263-14.054c0,0-15.611-11.626-15.611-26.537
			c0-18.34,14.366-33.207,32.088-33.207c17.721,0,32.088,14.867,32.088,33.207c0,14.911-15.611,26.537-15.611,26.537
			c-3.83,2.852-7.105,9.176-7.279,14.053l-2.949,178.75c-0.176,4.877,3.541,8.868,8.258,8.868h12.031
			c4.717,0,10.383-3.528,12.592-7.843l89.418-181.843C386.756,262.524,387.194,255.261,385.522,250.696z"/>
		<path d="M163.5,116.805h185c4.717,0,8.576-3.994,8.576-8.876V64.352c0-4.883-3.859-8.875-8.576-8.875h-185
			c-4.717,0-8.576,3.992-8.576,8.875v43.577C154.924,112.811,158.784,116.805,163.5,116.805z"/>
	</g>
</g>
</svg>
