<?xml version="1.0" encoding="utf-8"?>
<!-- Generator: Adobe Illustrator 16.0.0, SVG Export Plug-In . SVG Version: 6.00 Build 0)  -->
<!DOCTYPE svg PUBLIC "-//W3C//DTD SVG 1.1//EN" "http://www.w3.org/Graphics/SVG/1.1/DTD/svg11.dtd">
<svg version="1.1" xmlns="http://www.w3.org/2000/svg" xmlns:xlink="http://www.w3.org/1999/xlink" x="0px" y="0px" width="512px"
	 height="512px" viewBox="0 0 512 512" enable-background="new 0 0 512 512" xml:space="preserve">
<g id="Capa_2">
</g>
<g id="Artwork">
</g>
<g id="Layer_3">
</g>
<g id="Layer_4">
</g>
<g id="Layer_5">
	<g>
		<path d="M154.613,105.429h38.758c2.426,0,4.389-1.965,4.389-4.388s-1.963-4.388-4.389-4.388h-38.758
			c-2.426,0-4.389,1.965-4.389,4.388S152.188,105.429,154.613,105.429z"/>
		<path d="M152.805,65.148L191.563,82.7c0.588,0.266,1.201,0.393,1.805,0.393c1.672,0,3.27-0.96,4.002-2.58
			c0.998-2.209,0.021-4.808-2.189-5.808l-38.76-17.553c-2.211-1.001-4.807-0.017-5.806,2.188
			C149.615,61.549,150.594,64.147,152.805,65.148z"/>
		<path d="M197.369,121.569c-0.994-2.205-3.596-3.188-5.807-2.188l-38.758,17.552c-2.211,1-3.189,3.6-2.19,5.809
			c0.733,1.62,2.331,2.58,4.003,2.58c0.604,0,1.217-0.127,1.803-0.393l38.76-17.552
			C197.391,126.377,198.367,123.778,197.369,121.569z"/>
		<path d="M353,170.834H184.455c-4.826,0-8.775,3.95-8.775,8.776v266.854c0,4.826,3.949,8.775,8.775,8.775H353
			c4.828,0,8.777-3.949,8.777-8.775V179.61C361.777,174.784,357.828,170.834,353,170.834z M332.721,308.649
			c0,2.413-1.975,4.388-4.389,4.388H209.123c-2.414,0-4.389-1.975-4.389-4.388v-17.06c0-2.413,1.975-4.388,4.389-4.388h119.209
			c2.414,0,4.389,1.975,4.389,4.388V308.649z"/>
		<path d="M304.607,77.364h-71.759c-3.3,0-6,2.699-6,6v71.689c0,3.3,2.7,6,6,6h71.759c3.301,0,6-2.7,6-6V83.364
			C310.607,80.063,307.908,77.364,304.607,77.364z M260.23,129.243c0,1.603-1.311,2.913-2.914,2.913h-17.42
			c-1.602,0-2.912-1.311-2.912-2.913V94.438c0-1.603,1.311-2.913,2.912-2.913h17.42c1.604,0,2.914,1.311,2.914,2.913V129.243z"/>
	</g>
</g>
</svg>
