<?xml version="1.0" encoding="utf-8"?>
<!-- Generator: Adobe Illustrator 16.0.0, SVG Export Plug-In . SVG Version: 6.00 Build 0)  -->
<!DOCTYPE svg PUBLIC "-//W3C//DTD SVG 1.1//EN" "http://www.w3.org/Graphics/SVG/1.1/DTD/svg11.dtd">
<svg version="1.1" xmlns="http://www.w3.org/2000/svg" xmlns:xlink="http://www.w3.org/1999/xlink" x="0px" y="0px" width="512px"
	 height="512px" viewBox="0 0 512 512" enable-background="new 0 0 512 512" xml:space="preserve">
<g id="Capa_2">
</g>
<g id="Artwork">
</g>
<g id="Layer_3">
</g>
<g id="Layer_4">
</g>
<g id="Layer_5">
	<g>
		<path d="M433.803,148.271H78.197c-6.55,0-11.909,5.357-11.909,11.908v238.703c0,6.55,5.359,11.908,11.909,11.908h355.605
			c6.55,0,11.909-5.358,11.909-11.908V160.18C445.712,153.629,440.353,148.271,433.803,148.271z M221.554,375.9
			c-47.413,0-85.846-38.434-85.846-85.846c0-47.41,38.434-85.844,85.846-85.844s85.847,38.434,85.847,85.844
			C307.401,337.467,268.967,375.9,221.554,375.9z M424.296,237.883c0,2.75-2.25,5-5,5h-79c-2.75,0-5-2.25-5-5v-25c0-2.75,2.25-5,5-5
			h79c2.75,0,5,2.25,5,5V237.883z"/>
		<path d="M355.075,101.209h-198.15c-3.123,0-5.678,2.556-5.678,5.679v18.817c0,3.123,2.555,5.678,5.678,5.678h198.15
			c3.123,0,5.679-2.555,5.679-5.678v-18.817C360.754,103.765,358.198,101.209,355.075,101.209z"/>
	</g>
</g>
</svg>
