<?xml version="1.0" encoding="utf-8"?>
<!-- Generator: Adobe Illustrator 16.0.0, SVG Export Plug-In . SVG Version: 6.00 Build 0)  -->
<!DOCTYPE svg PUBLIC "-//W3C//DTD SVG 1.1//EN" "http://www.w3.org/Graphics/SVG/1.1/DTD/svg11.dtd">
<svg version="1.1" xmlns="http://www.w3.org/2000/svg" xmlns:xlink="http://www.w3.org/1999/xlink" x="0px" y="0px" width="512px"
	 height="512px" viewBox="0 0 512 512" enable-background="new 0 0 512 512" xml:space="preserve">
<g id="Capa_2">
</g>
<g id="Artwork">
</g>
<g id="Layer_3">
</g>
<g id="Layer_4">
</g>
<g id="Layer_5">
	<path d="M433.263,70.537H78.737c-4.51,0-8.2,3.689-8.2,8.2v354.525c0,4.511,3.69,8.2,8.2,8.2h354.525c4.51,0,8.2-3.689,8.2-8.2
		V78.737C441.463,74.227,437.772,70.537,433.263,70.537z M216.843,325.279l-56.509,56.364c-2.266,2.266-2.266,5.973,0,8.238
		l12.818,12.818c2.267,2.267,1.507,4.326-1.688,4.579l-66.545,5.261c-3.193,0.253-5.601-2.154-5.348-5.349l5.261-66.544
		c0.253-3.194,2.313-3.955,4.578-1.688l12.819,12.818c2.266,2.266,5.973,2.266,8.238,0l56.51-56.364
		c2.266-2.265,5.973-2.265,8.238,0l21.627,21.628C219.108,319.307,219.108,323.014,216.843,325.279z M216.843,196.381
		l-21.627,21.627c-2.266,2.267-5.973,2.267-8.238,0l-56.51-56.363c-2.266-2.266-5.973-2.266-8.238,0l-12.819,12.818
		c-2.265,2.266-4.325,1.506-4.578-1.688l-5.261-66.546c-0.253-3.193,2.154-5.601,5.348-5.348l66.545,5.261
		c3.195,0.252,3.955,2.313,1.688,4.578l-12.818,12.818c-2.266,2.267-2.266,5.974,0,8.239l56.509,56.364
		C219.108,190.408,219.108,194.115,216.843,196.381z M407.081,412.54l-66.545-5.261c-3.195-0.253-3.955-2.313-1.688-4.579
		l12.818-12.818c2.266-2.266,2.266-5.973,0-8.238l-56.509-56.364c-2.266-2.266-2.266-5.973,0-8.238l21.627-21.628
		c2.266-2.265,5.973-2.265,8.238,0l56.51,56.364c2.266,2.266,5.973,2.266,8.238,0l12.818-12.818
		c2.266-2.267,4.326-1.506,4.579,1.688l5.261,66.544C412.682,410.386,410.274,412.793,407.081,412.54z M407.168,172.775
		c-0.253,3.193-2.313,3.953-4.579,1.688l-12.818-12.818c-2.266-2.266-5.973-2.266-8.238,0l-56.51,56.363
		c-2.266,2.267-5.973,2.267-8.238,0l-21.627-21.627c-2.266-2.266-2.266-5.973,0-8.238l56.509-56.364
		c2.266-2.266,2.266-5.973,0-8.239l-12.818-12.818c-2.267-2.266-1.507-4.326,1.688-4.578l66.545-5.261
		c3.193-0.253,5.601,2.154,5.348,5.348L407.168,172.775z"/>
</g>
</svg>
