<?xml version="1.0" encoding="utf-8"?>
<!-- Generator: Adobe Illustrator 16.0.0, SVG Export Plug-In . SVG Version: 6.00 Build 0)  -->
<!DOCTYPE svg PUBLIC "-//W3C//DTD SVG 1.1//EN" "http://www.w3.org/Graphics/SVG/1.1/DTD/svg11.dtd">
<svg version="1.1" xmlns="http://www.w3.org/2000/svg" xmlns:xlink="http://www.w3.org/1999/xlink" x="0px" y="0px" width="512px"
	 height="512px" viewBox="0 0 512 512" enable-background="new 0 0 512 512" xml:space="preserve">
<g id="Capa_2">
</g>
<g id="Artwork">
</g>
<g id="Layer_3">
</g>
<g id="Layer_4">
</g>
<g id="Layer_5">
	<g>
		<g>
			<path d="M112.986,419.902c-1.988,0-3.615,1.627-3.615,3.616v28.778c0,1.988,1.627,3.615,3.615,3.615h135.842
				c1.988,0,3.615-1.627,3.615-3.615v-28.778c0-1.989-1.627-3.616-3.615-3.616H112.986z"/>
			<path d="M248.828,403.505c1.988,0,3.615-1.628,3.615-3.617V155.606c0-1.988-0.962-4.928-2.137-6.531L184.046,57.29
				c-1.176-1.603-5.101-1.603-6.276,0l-66.261,91.785c-1.176,1.604-2.138,4.543-2.138,6.531v244.281
				c0,1.989,1.627,3.617,3.615,3.617H248.828z M139.676,139.524c1.172-1.606,3.13-4.206,4.351-5.775
				c0,0,19.807-25.466,27.148-34.906c3.683-4.732,15.293-5.363,18.975-0.631c7.465,9.598,27.64,35.537,27.64,35.537
				c1.221,1.569,3.178,4.169,4.35,5.775c0,0,1.475,2.284,2.819,4.492c0.514,0.844-0.436,2.664-4.125,2.739
				c-16.989,0.345-65.96,0.335-81.163-0.028c-2.888-0.069-3.669-1.878-3.124-2.738C137.218,142.928,139.676,139.524,139.676,139.524
				z"/>
		</g>
		<path d="M281.963,62.005c-2.2,0-4,1.799-4,4V85.05c0,2.199,1.8,4,4,4h30.645c2.2,0,4,1.799,4,4v9.151c0,2.2-1.8,4-4,4h-30.645
			c-2.2,0-4,1.8-4,4v39.382c0,2.199,1.8,4,4,4h54.333c2.2,0,4,1.799,4,4v9.152c0,2.199-1.8,4-4,4h-54.333c-2.2,0-4,1.799-4,4v39.381
			c0,2.199,1.8,4,4,4h30.645c2.2,0,4,1.799,4,4v9.152c0,2.199-1.8,4-4,4h-30.645c-2.2,0-4,1.799-4,4v39.381c0,2.199,1.8,4,4,4
			h54.333c2.2,0,4,1.799,4,4v9.15c0,2.2-1.8,4-4,4h-54.333c-2.2,0-4,1.801-4,4v39.383c0,2.199,1.8,4,4,4h30.645c2.2,0,4,1.799,4,4
			v9.152c0,2.199-1.8,4-4,4h-30.645c-2.2,0-4,1.799-4,4v39.38c0,2.2,1.8,4,4,4h54.333c2.2,0,4,1.8,4,4v9.151c0,2.199-1.8,4-4,4
			h-54.333c-2.2,0-4,1.8-4,4v19.046c0,2.2,1.8,4,4,4h116.666c2.2,0,4-1.8,4-4V66.005c0-2.201-1.8-4-4-4H281.963z"/>
	</g>
</g>
</svg>
