<?xml version="1.0" encoding="utf-8"?>
<!-- Generator: Adobe Illustrator 16.0.0, SVG Export Plug-In . SVG Version: 6.00 Build 0)  -->
<!DOCTYPE svg PUBLIC "-//W3C//DTD SVG 1.1//EN" "http://www.w3.org/Graphics/SVG/1.1/DTD/svg11.dtd">
<svg version="1.1" xmlns="http://www.w3.org/2000/svg" xmlns:xlink="http://www.w3.org/1999/xlink" x="0px" y="0px" width="512px"
	 height="512px" viewBox="0 0 512 512" enable-background="new 0 0 512 512" xml:space="preserve">
<g id="Capa_2">
</g>
<g id="Artwork">
</g>
<g id="Layer_3">
</g>
<g id="Layer_4">
</g>
<g id="Layer_5">
	<path d="M296.941,41.809c-2.076-1.071-4.65-0.25-5.723,1.824l-9.279,17.965c-1.071,2.074-0.25,4.65,1.824,5.722l28.904,14.931
		c2.076,1.071,2.896,3.646,1.824,5.721l-4.459,8.633c-1.071,2.074-3.646,2.895-5.721,1.823l-28.904-14.931
		c-2.076-1.071-4.65-0.25-5.723,1.824l-19.188,37.145c-1.072,2.075-0.252,4.65,1.824,5.723l51.246,26.473
		c2.076,1.071,2.896,3.646,1.824,5.721l-4.459,8.633c-1.072,2.075-3.646,2.896-5.723,1.824l-51.246-26.473
		c-2.076-1.071-4.65-0.251-5.723,1.824l-19.188,37.145c-1.072,2.075-0.252,4.65,1.824,5.723l28.904,14.93
		c2.076,1.072,2.896,3.647,1.824,5.723l-4.459,8.632c-1.072,2.075-3.646,2.896-5.723,1.823l-28.904-14.931
		c-2.074-1.071-4.649-0.251-5.721,1.823l-19.188,37.146c-1.072,2.075-0.252,4.65,1.824,5.722l51.246,26.473
		c2.076,1.072,2.896,3.646,1.824,5.722l-4.459,8.632c-1.071,2.075-3.646,2.896-5.721,1.824l-51.248-26.473
		c-2.074-1.072-4.649-0.251-5.721,1.824l-19.189,37.146c-1.071,2.075-0.25,4.649,1.824,5.722l28.904,14.931
		c2.076,1.071,2.896,3.646,1.824,5.722l-4.46,8.633c-1.072,2.076-3.647,2.896-5.722,1.824l-28.904-14.932
		c-2.074-1.071-4.649-0.25-5.722,1.824l-19.187,37.145c-1.072,2.075-0.252,4.65,1.824,5.723l51.246,26.472
		c2.076,1.071,2.896,3.647,1.824,5.722l-4.459,8.632c-1.072,2.075-3.646,2.896-5.723,1.823l-51.246-26.472
		c-2.074-1.071-4.649-0.251-5.722,1.823l-9.28,17.965c-1.071,2.075-0.25,4.65,1.824,5.722l110.041,56.843
		c2.076,1.071,4.65,0.25,5.723-1.824l188.025-363.994c1.071-2.074,0.25-4.649-1.824-5.721L296.941,41.809z"/>
</g>
</svg>
