<?xml version="1.0" encoding="utf-8"?>
<!-- Generator: Adobe Illustrator 16.0.0, SVG Export Plug-In . SVG Version: 6.00 Build 0)  -->
<!DOCTYPE svg PUBLIC "-//W3C//DTD SVG 1.1//EN" "http://www.w3.org/Graphics/SVG/1.1/DTD/svg11.dtd">
<svg version="1.1" xmlns="http://www.w3.org/2000/svg" xmlns:xlink="http://www.w3.org/1999/xlink" x="0px" y="0px" width="512px"
	 height="512px" viewBox="0 0 512 512" enable-background="new 0 0 512 512" xml:space="preserve">
<g id="Capa_2">
</g>
<g id="Artwork">
</g>
<g id="Layer_3">
</g>
<g id="Layer_4">
</g>
<g id="Layer_5">
	<g>
		<path d="M218.637,315.316c-3.85,0-8.669,2.672-10.708,5.938l-66.665,106.759c-2.04,3.266-0.558,5.938,3.292,5.938h21.471
			c3.85,0,8.64-2.689,10.644-5.977l60.23-98.8c2.004-3.287,3.644-2.828,3.644,1.021v96.755c0,3.851,3.15,7,7,7h16.912
			c3.85,0,7-3.149,7-7v-96.755c0-3.85,1.64-4.309,3.644-1.021l60.23,98.8c2.004,3.287,6.794,5.977,10.644,5.977h21.471
			c3.85,0,5.332-2.671,3.292-5.938l-66.669-106.759c-2.039-3.266-6.858-5.938-10.708-5.938H218.637z"/>
		<path d="M405.723,272.377H394.42V86.383c0-4.582-3.749-8.333-8.333-8.333h-9.512v0.014H125.778
			c-4.521,0.075-8.199,3.782-8.199,8.319v185.994h-11.302c-3.85,0-7,3.15-7,7v12c0,3.07,2.006,5.689,4.769,6.627
			c0.11,0.057,0.221,0.112,0.338,0.156v0.059h0.29c0.256,0.068,0.504,0.158,0.78,0.158h0.823h299.445h0.823
			c0.276,0,0.524-0.09,0.78-0.158h0.29v-0.059c0.117-0.044,0.228-0.1,0.338-0.156c2.763-0.938,4.769-3.557,4.769-6.627v-12
			C412.723,275.527,409.572,272.377,405.723,272.377z M152.568,108.491c0-3.429,2.806-6.233,6.234-6.233h194.395
			c3.429,0,6.234,2.805,6.234,6.233v150.954c0,3.43-2.806,6.234-6.234,6.234H158.803c-3.429,0-6.234-2.805-6.234-6.234V108.491z"/>
	</g>
</g>
</svg>
