<?xml version="1.0" encoding="utf-8"?>
<!-- Generator: Adobe Illustrator 16.0.0, SVG Export Plug-In . SVG Version: 6.00 Build 0)  -->
<!DOCTYPE svg PUBLIC "-//W3C//DTD SVG 1.1//EN" "http://www.w3.org/Graphics/SVG/1.1/DTD/svg11.dtd">
<svg version="1.1" xmlns="http://www.w3.org/2000/svg" xmlns:xlink="http://www.w3.org/1999/xlink" x="0px" y="0px" width="512px"
	 height="512px" viewBox="0 0 512 512" enable-background="new 0 0 512 512" xml:space="preserve">
<g id="Capa_2">
</g>
<g id="Artwork">
</g>
<g id="Layer_3">
</g>
<g id="Layer_4">
</g>
<g id="Layer_5">
	<g>
		<path d="M82.672,366.179c-2.748,3.173-5.249,2.344-5.559-1.842L57.712,102.031c-0.31-4.186,2.081-5.419,5.313-2.742
			l202.55,167.793c3.232,2.678,2.458,5.187-1.722,5.576l-101.397,9.452c-4.18,0.39-9.846,3.305-12.594,6.477L82.672,366.179z"/>
		<path d="M163.749,115.931c-4.197,0-7.631,3.434-7.631,7.63v21.788c0,4.196,2.645,9.821,5.878,12.498l32.463,26.895
			c3.232,2.678,5.877,1.434,5.877-2.763v-14.392c0-4.197,3.435-7.631,7.631-7.631h194.499c4.197,0,7.632,3.434,7.632,7.631V362.47
			c0,4.197-3.435,7.631-7.632,7.631H207.967c-4.196,0-7.631-3.434-7.631-7.631v-56.518c0-4.196-3.434-7.655-7.631-7.686
			l-28.956-0.208c-4.197-0.03-7.631,3.379-7.631,7.576v100.86c0,4.197,3.434,7.631,7.631,7.631h282.935
			c4.196,0,7.631-3.434,7.631-7.631V123.561c0-4.196-3.435-7.63-7.631-7.63H163.749z"/>
	</g>
</g>
</svg>
