<?xml version="1.0" encoding="utf-8"?>
<!-- Generator: Adobe Illustrator 16.0.0, SVG Export Plug-In . SVG Version: 6.00 Build 0)  -->
<!DOCTYPE svg PUBLIC "-//W3C//DTD SVG 1.1//EN" "http://www.w3.org/Graphics/SVG/1.1/DTD/svg11.dtd">
<svg version="1.1" xmlns="http://www.w3.org/2000/svg" xmlns:xlink="http://www.w3.org/1999/xlink" x="0px" y="0px" width="512px"
	 height="512px" viewBox="0 0 512 512" enable-background="new 0 0 512 512" xml:space="preserve">
<g id="Capa_2">
</g>
<g id="Artwork">
</g>
<g id="Layer_3">
</g>
<g id="Layer_4">
</g>
<g id="Layer_5">
	<g>
		<circle cx="255.775" cy="256.224" r="97.907"/>
		<path d="M282.428,96.033c0,14.683-11.904,26.591-26.591,26.591s-26.592-11.908-26.592-26.591
			c0-14.688,11.905-26.592,26.592-26.592S282.428,81.346,282.428,96.033z"/>
		<path d="M398.061,140.53c0,14.683-11.904,26.592-26.592,26.592s-26.592-11.909-26.592-26.592
			c0-14.687,11.904-26.592,26.592-26.592S398.061,125.844,398.061,140.53z"/>
		<circle cx="415.968" cy="256.224" r="26.591"/>
		<path d="M398.061,371.469c0,14.683-11.904,26.592-26.592,26.592s-26.592-11.909-26.592-26.592
			c0-14.688,11.904-26.592,26.592-26.592S398.061,356.78,398.061,371.469z"/>
		<path d="M282.367,415.967c0,14.683-11.904,26.592-26.592,26.592s-26.592-11.909-26.592-26.592
			c0-14.688,11.904-26.592,26.592-26.592S282.367,401.279,282.367,415.967z"/>
		<path d="M166.799,371.469c0,14.683-11.904,26.592-26.592,26.592c-14.687,0-26.592-11.909-26.592-26.592
			c0-14.688,11.905-26.592,26.592-26.592C154.895,344.877,166.799,356.78,166.799,371.469z"/>
		<circle cx="96.033" cy="256.224" r="26.592"/>
		<path d="M166.799,140.53c0,14.683-11.904,26.592-26.592,26.592c-14.687,0-26.592-11.909-26.592-26.592
			c0-14.687,11.905-26.592,26.592-26.592C154.895,113.938,166.799,125.844,166.799,140.53z"/>
	</g>
</g>
</svg>
