<?xml version="1.0" encoding="utf-8"?>
<!-- Generator: Adobe Illustrator 16.0.0, SVG Export Plug-In . SVG Version: 6.00 Build 0)  -->
<!DOCTYPE svg PUBLIC "-//W3C//DTD SVG 1.1//EN" "http://www.w3.org/Graphics/SVG/1.1/DTD/svg11.dtd">
<svg version="1.1" xmlns="http://www.w3.org/2000/svg" xmlns:xlink="http://www.w3.org/1999/xlink" x="0px" y="0px" width="512px"
	 height="512px" viewBox="0 0 512 512" enable-background="new 0 0 512 512" xml:space="preserve">
<g id="Capa_2">
</g>
<g id="Artwork">
</g>
<g id="Layer_3">
</g>
<g id="Layer_4">
</g>
<g id="Layer_5">
	<g>
		<g>
			<g>
				<path d="M300.935,85.06c4.334-3.385,7.922-1.652,7.971,3.848l0.564,64.615c0.046,5.5,3.815,12.518,8.373,15.597l53.548,36.167
					c4.558,3.078,4.019,7.025-1.196,8.77l-61.276,20.504c-5.218,1.744-10.728,7.498-12.246,12.783l-17.851,62.104
					c-1.52,5.287-5.439,5.994-8.711,1.572l-38.436-51.943c-3.271-4.421-10.445-7.885-15.942-7.695l-64.579,2.217
					c-5.498,0.188-7.381-3.322-4.188-7.799l37.523-52.607c3.194-4.478,4.27-12.371,2.393-17.541l-22.063-60.732
					c-1.879-5.169,0.877-8.045,6.122-6.393l61.626,19.431c5.246,1.654,13.087,0.239,17.421-3.145L300.935,85.06z"/>
				<path d="M317.227,41.054c1.921-3.979,6.703-5.647,10.683-3.727l0,0c3.979,1.92,5.646,6.703,3.727,10.682L323.81,64.22
					c-1.92,3.979-6.703,5.647-10.682,3.727l0,0c-3.979-1.92-5.648-6.703-3.727-10.682L317.227,41.054z"/>
			</g>
			<g>
				<path d="M130.428,205.064c-4.294,1.042-8.618-1.589-9.665-5.884l0,0c-1.042-4.293,1.59-8.62,5.882-9.664l17.492-4.253
					c4.293-1.045,8.621,1.588,9.664,5.881l0,0c1.043,4.294-1.589,8.62-5.883,9.665L130.428,205.064z"/>
				<path d="M186.522,65.759c-2.031-3.925-0.499-8.75,3.424-10.783l0,0c3.925-2.031,8.751-0.5,10.784,3.422l8.279,15.986
					c2.03,3.922,0.499,8.75-3.423,10.781l0,0c-3.924,2.032-8.752,0.5-10.784-3.424L186.522,65.759z"/>
			</g>
			<g>
				<path d="M322.807,297.929c1.854,4.011,6.604,5.76,10.618,3.908l0,0c4.01-1.854,5.762-6.607,3.908-10.617l-7.552-16.342
					c-1.852-4.011-6.604-5.762-10.615-3.908l0,0c-4.011,1.854-5.761,6.606-3.908,10.617L322.807,297.929z"/>
				<path d="M396.988,167.354c4.335-0.851,7.161-5.053,6.313-9.389l0,0c-0.852-4.336-5.053-7.164-9.389-6.314l-17.665,3.462
					c-4.337,0.849-7.163,5.051-6.314,9.386l0,0c0.851,4.336,5.052,7.164,9.39,6.313L396.988,167.354z"/>
			</g>
		</g>
		<path d="M136.016,470.952c-1.912,3.963-6.72,5.64-10.682,3.727l-12.269-5.922c-3.962-1.912-5.64-6.719-3.727-10.682
			l89.863-186.162c1.913-3.963,6.721-5.64,10.683-3.727l12.27,5.922c3.961,1.912,5.64,6.719,3.727,10.682L136.016,470.952z"/>
	</g>
</g>
</svg>
